<svg xmlns="http://www.w3.org/2000/svg" viewBox="0 0 200 200"><defs><linearGradient id="g" x1="0" y1="0" x2="0" y2="1"><stop offset="0" stop-color="#E9C25A"/><stop offset="1" stop-color="#B8860B"/></linearGradient>
<linearGradient id="b" x1="0" y1="0" x2="0" y2="1"><stop offset="0" stop-color="#F3E1C8"/><stop offset=".55" stop-color="#D9A89A"/><stop offset="1" stop-color="#8E4F4A"/></linearGradient>
<linearGradient id="st" x1="0" y1="0" x2="0" y2="1"><stop offset="0" stop-color="#FBF5EC"/><stop offset="1" stop-color="#E4D6C3"/></linearGradient>
<linearGradient id="gl" x1="0" y1="0" x2="1" y2="1"><stop offset="0" stop-color="#3E6FA8"/><stop offset=".35" stop-color="#B3261E"/><stop offset=".65" stop-color="#E9C25A"/><stop offset="1" stop-color="#5E7F34"/></linearGradient>
<radialGradient id="f" cx=".5" cy=".8" r=".7"><stop offset="0" stop-color="#FFE08A"/><stop offset=".5" stop-color="#F29A2E"/><stop offset="1" stop-color="#C0392B"/></radialGradient></defs><rect x="43" y="100" width="14" height="76" fill="#FFFDF8" stroke="#D9C9B4"/><path d="M50,100 q-5,-10 0,-18 q5,8 0,18Z" fill="url(#f)" stroke="none" stroke-width="0" stroke-linecap="round" stroke-linejoin="round" /><rect x="93" y="70" width="14" height="106" fill="#FFFDF8" stroke="#D9C9B4"/><path d="M100,70 q-5,-10 0,-18 q5,8 0,18Z" fill="url(#f)" stroke="none" stroke-width="0" stroke-linecap="round" stroke-linejoin="round" /><rect x="143" y="100" width="14" height="76" fill="#FFFDF8" stroke="#D9C9B4"/><path d="M150,100 q-5,-10 0,-18 q5,8 0,18Z" fill="url(#f)" stroke="none" stroke-width="0" stroke-linecap="round" stroke-linejoin="round" /><rect x="90" y="120" width="20" height="6" fill="url(#g)" /><rect x="98.32" y="132" width="3.3600000000000003" height="24" fill="url(#g)" /><rect x="92.08" y="138.0" width="15.84" height="3.3600000000000003" fill="url(#g)" /><rect x="30" y="176" width="140" height="8" fill="url(#g)" rx="3"/><circle cx="40" cy="176" r="5" fill="#FFFDF8" /><path d="M37.5,176 a2.5,2.5 0 1 1 5,0" fill="none" stroke="#9A5F5A" stroke-width="0.8" stroke-linecap="round" stroke-linejoin="round" /><circle cx="40" cy="176" r="1.5" fill="#9A5F5A" /><circle cx="56" cy="176" r="5" fill="#D9A89A" /><path d="M53.5,176 a2.5,2.5 0 1 1 5,0" fill="none" stroke="#9A5F5A" stroke-width="0.8" stroke-linecap="round" stroke-linejoin="round" /><circle cx="56" cy="176" r="1.5" fill="#9A5F5A" /><circle cx="72" cy="176" r="5" fill="#FFFDF8" /><path d="M69.5,176 a2.5,2.5 0 1 1 5,0" fill="none" stroke="#9A5F5A" stroke-width="0.8" stroke-linecap="round" stroke-linejoin="round" /><circle cx="72" cy="176" r="1.5" fill="#9A5F5A" /><circle cx="88" cy="176" r="5" fill="#D9A89A" /><path d="M85.5,176 a2.5,2.5 0 1 1 5,0" fill="none" stroke="#9A5F5A" stroke-width="0.8" stroke-linecap="round" stroke-linejoin="round" /><circle cx="88" cy="176" r="1.5" fill="#9A5F5A" /><circle cx="104" cy="176" r="5" fill="#FFFDF8" /><path d="M101.5,176 a2.5,2.5 0 1 1 5,0" fill="none" stroke="#9A5F5A" stroke-width="0.8" stroke-linecap="round" stroke-linejoin="round" /><circle cx="104" cy="176" r="1.5" fill="#9A5F5A" /><circle cx="120" cy="176" r="5" fill="#D9A89A" /><path d="M117.5,176 a2.5,2.5 0 1 1 5,0" fill="none" stroke="#9A5F5A" stroke-width="0.8" stroke-linecap="round" stroke-linejoin="round" /><circle cx="120" cy="176" r="1.5" fill="#9A5F5A" /><circle cx="136" cy="176" r="5" fill="#FFFDF8" /><path d="M133.5,176 a2.5,2.5 0 1 1 5,0" fill="none" stroke="#9A5F5A" stroke-width="0.8" stroke-linecap="round" stroke-linejoin="round" /><circle cx="136" cy="176" r="1.5" fill="#9A5F5A" /><circle cx="152" cy="176" r="5" fill="#D9A89A" /><path d="M149.5,176 a2.5,2.5 0 1 1 5,0" fill="none" stroke="#9A5F5A" stroke-width="0.8" stroke-linecap="round" stroke-linejoin="round" /><circle cx="152" cy="176" r="1.5" fill="#9A5F5A" /><circle cx="168" cy="176" r="5" fill="#FFFDF8" /><path d="M165.5,176 a2.5,2.5 0 1 1 5,0" fill="none" stroke="#9A5F5A" stroke-width="0.8" stroke-linecap="round" stroke-linejoin="round" /><circle cx="168" cy="176" r="1.5" fill="#9A5F5A" /></svg>