<svg xmlns="http://www.w3.org/2000/svg" viewBox="0 0 200 200"><defs><linearGradient id="g" x1="0" y1="0" x2="0" y2="1"><stop offset="0" stop-color="#E9C25A"/><stop offset="1" stop-color="#B8860B"/></linearGradient>
<linearGradient id="b" x1="0" y1="0" x2="0" y2="1"><stop offset="0" stop-color="#F3E1C8"/><stop offset=".55" stop-color="#D9A89A"/><stop offset="1" stop-color="#8E4F4A"/></linearGradient>
<linearGradient id="st" x1="0" y1="0" x2="0" y2="1"><stop offset="0" stop-color="#FBF5EC"/><stop offset="1" stop-color="#E4D6C3"/></linearGradient>
<linearGradient id="gl" x1="0" y1="0" x2="1" y2="1"><stop offset="0" stop-color="#3E6FA8"/><stop offset=".35" stop-color="#B3261E"/><stop offset=".65" stop-color="#E9C25A"/><stop offset="1" stop-color="#5E7F34"/></linearGradient>
<radialGradient id="f" cx=".5" cy=".8" r=".7"><stop offset="0" stop-color="#FFE08A"/><stop offset=".5" stop-color="#F29A2E"/><stop offset="1" stop-color="#C0392B"/></radialGradient></defs><path d="M20,150 Q60,130 100,150 Q140,130 180,150 V60 Q140,40 100,60 Q60,40 20,60Z" fill="#FFFDF8" stroke="#D9C9B4" stroke-width="1.5" stroke-linecap="round" stroke-linejoin="round" /><path d="M100,60 V150" fill="none" stroke="#D9C9B4" stroke-width="1.5" stroke-linecap="round" stroke-linejoin="round" /><path d="M32,82 h50" fill="none" stroke="#CBB9A0" stroke-width="2" stroke-linecap="round" stroke-linejoin="round" /><path d="M32,94 h50" fill="none" stroke="#CBB9A0" stroke-width="2" stroke-linecap="round" stroke-linejoin="round" /><path d="M32,106 h50" fill="none" stroke="#CBB9A0" stroke-width="2" stroke-linecap="round" stroke-linejoin="round" /><path d="M32,118 h50" fill="none" stroke="#CBB9A0" stroke-width="2" stroke-linecap="round" stroke-linejoin="round" /><path d="M32,130 h50" fill="none" stroke="#CBB9A0" stroke-width="2" stroke-linecap="round" stroke-linejoin="round" /><path d="M114,82 h50" fill="none" stroke="#CBB9A0" stroke-width="2" stroke-linecap="round" stroke-linejoin="round" /><path d="M114,94 h50" fill="none" stroke="#CBB9A0" stroke-width="2" stroke-linecap="round" stroke-linejoin="round" /><path d="M114,106 h50" fill="none" stroke="#CBB9A0" stroke-width="2" stroke-linecap="round" stroke-linejoin="round" /><path d="M114,118 h50" fill="none" stroke="#CBB9A0" stroke-width="2" stroke-linecap="round" stroke-linejoin="round" /><path d="M114,130 h50" fill="none" stroke="#CBB9A0" stroke-width="2" stroke-linecap="round" stroke-linejoin="round" /><rect x="57.02" y="62" width="1.9600000000000002" height="14" fill="#6E1F1F" /><rect x="53.38" y="65.5" width="9.24" height="1.9600000000000002" fill="#6E1F1F" /><path d="M100,150 Q98,172 104,186" fill="none" stroke="#B3261E" stroke-width="3" stroke-linecap="round" stroke-linejoin="round" /></svg>