<svg xmlns="http://www.w3.org/2000/svg" viewBox="0 0 200 200"><defs><linearGradient id="g" x1="0" y1="0" x2="0" y2="1"><stop offset="0" stop-color="#E9C25A"/><stop offset="1" stop-color="#B8860B"/></linearGradient>
<linearGradient id="b" x1="0" y1="0" x2="0" y2="1"><stop offset="0" stop-color="#F3E1C8"/><stop offset=".55" stop-color="#D9A89A"/><stop offset="1" stop-color="#8E4F4A"/></linearGradient></defs><circle cx="48" cy="74" r="3" fill="#5E2723"/><circle cx="48" cy="100" r="3" fill="#5E2723"/><circle cx="48" cy="126" r="3" fill="#5E2723"/><circle cx="74" cy="48" r="3" fill="#5E2723"/><circle cx="74" cy="74" r="3" fill="#5E2723"/><circle cx="74" cy="100" r="3" fill="#5E2723"/><circle cx="74" cy="126" r="3" fill="#5E2723"/><circle cx="74" cy="152" r="3" fill="#5E2723"/><circle cx="100" cy="48" r="3" fill="#5E2723"/><circle cx="100" cy="74" r="3" fill="#5E2723"/><circle cx="100" cy="100" r="3" fill="#5E2723"/><circle cx="100" cy="126" r="3" fill="#5E2723"/><circle cx="100" cy="152" r="3" fill="#5E2723"/><circle cx="126" cy="48" r="3" fill="#5E2723"/><circle cx="126" cy="74" r="3" fill="#5E2723"/><circle cx="126" cy="100" r="3" fill="#5E2723"/><circle cx="126" cy="126" r="3" fill="#5E2723"/><circle cx="126" cy="152" r="3" fill="#5E2723"/><circle cx="152" cy="74" r="3" fill="#5E2723"/><circle cx="152" cy="100" r="3" fill="#5E2723"/><circle cx="152" cy="126" r="3" fill="#5E2723"/><g transform="rotate(0.0 100 100)"><path d="M100,100 C130,60 160,80 140,100 C160,120 130,140 100,100" fill="none" stroke="#B8860B" stroke-width="3" /></g><g transform="rotate(90.0 100 100)"><path d="M100,100 C130,60 160,80 140,100 C160,120 130,140 100,100" fill="none" stroke="#B8860B" stroke-width="3" /></g><g transform="rotate(180.0 100 100)"><path d="M100,100 C130,60 160,80 140,100 C160,120 130,140 100,100" fill="none" stroke="#B8860B" stroke-width="3" /></g><g transform="rotate(270.0 100 100)"><path d="M100,100 C130,60 160,80 140,100 C160,120 130,140 100,100" fill="none" stroke="#B8860B" stroke-width="3" /></g><circle cx="100" cy="100" r="80" fill="none" stroke="#9A5F5A" stroke-width="2" stroke-dasharray="2 6" stroke-linecap="round"/><g transform="rotate(0.0 100 100)"><path d="M100,14 Q108,24 100,34 Q92,24 100,14Z" fill="#9A5F5A" stroke="none" stroke-width="0" /></g><g transform="rotate(45.0 100 100)"><path d="M100,14 Q108,24 100,34 Q92,24 100,14Z" fill="#9A5F5A" stroke="none" stroke-width="0" /></g><g transform="rotate(90.0 100 100)"><path d="M100,14 Q108,24 100,34 Q92,24 100,14Z" fill="#9A5F5A" stroke="none" stroke-width="0" /></g><g transform="rotate(135.0 100 100)"><path d="M100,14 Q108,24 100,34 Q92,24 100,14Z" fill="#9A5F5A" stroke="none" stroke-width="0" /></g><g transform="rotate(180.0 100 100)"><path d="M100,14 Q108,24 100,34 Q92,24 100,14Z" fill="#9A5F5A" stroke="none" stroke-width="0" /></g><g transform="rotate(225.0 100 100)"><path d="M100,14 Q108,24 100,34 Q92,24 100,14Z" fill="#9A5F5A" stroke="none" stroke-width="0" /></g><g transform="rotate(270.0 100 100)"><path d="M100,14 Q108,24 100,34 Q92,24 100,14Z" fill="#9A5F5A" stroke="none" stroke-width="0" /></g><g transform="rotate(315.0 100 100)"><path d="M100,14 Q108,24 100,34 Q92,24 100,14Z" fill="#9A5F5A" stroke="none" stroke-width="0" /></g></svg>