<svg xmlns="http://www.w3.org/2000/svg" viewBox="0 0 200 200"><defs><linearGradient id="g" x1="0" y1="0" x2="0" y2="1"><stop offset="0" stop-color="#E9C25A"/><stop offset="1" stop-color="#B8860B"/></linearGradient>
<linearGradient id="b" x1="0" y1="0" x2="0" y2="1"><stop offset="0" stop-color="#F3E1C8"/><stop offset=".55" stop-color="#D9A89A"/><stop offset="1" stop-color="#8E4F4A"/></linearGradient></defs><path d="M40,150 Q30,90 80,80 Q120,70 150,90 Q168,100 164,130 Q170,160 160,178 H148 V150 H132 V178 H118 V150 H70 V178 H56 V150 Q46,160 40,150Z" fill="#9A5F5A" stroke="none" stroke-width="0" /><path d="M150,92 Q176,100 172,140 Q170,168 182,172 Q172,180 164,168 Q158,140 158,120Z" fill="#9A5F5A" stroke="none" stroke-width="0" /><path d="M136,96 Q120,110 130,132 Q146,128 150,106Z" fill="#7A3B35" stroke="none" stroke-width="0" /><circle cx="156" cy="106" r="2.5" fill="#5E2723"/><path d="M70,82 Q100,70 128,84 L124,128 Q98,138 74,128Z" fill="#5E2723" stroke="none" stroke-width="0" /><path d="M74,128 Q98,138 124,128 L120,138 Q98,146 78,138Z" fill="url(#g)" stroke="none" stroke-width="0" /><circle cx="80" cy="144" r="2.5" fill="url(#g)"/><circle cx="90" cy="142" r="2.5" fill="url(#g)"/><circle cx="100" cy="144" r="2.5" fill="url(#g)"/><circle cx="110" cy="142" r="2.5" fill="url(#g)"/><circle cx="120" cy="144" r="2.5" fill="url(#g)"/><path d="M86,96 L100,86 L112,96 L100,112Z" fill="url(#g)" stroke="none" stroke-width="0" /><path d="M150,86 Q162,74 172,86 L162,104Z" fill="url(#g)" stroke="none" stroke-width="0" /><path d="M166,134 Q176,146 170,152" fill="none" stroke="#FFF7EE" stroke-width="3" /></svg>