<svg xmlns="http://www.w3.org/2000/svg" viewBox="0 0 200 200"><defs><linearGradient id="g" x1="0" y1="0" x2="0" y2="1"><stop offset="0" stop-color="#E9C25A"/><stop offset="1" stop-color="#B8860B"/></linearGradient>
<linearGradient id="b" x1="0" y1="0" x2="0" y2="1"><stop offset="0" stop-color="#F3E1C8"/><stop offset=".55" stop-color="#D9A89A"/><stop offset="1" stop-color="#8E4F4A"/></linearGradient>
<radialGradient id="f" cx=".5" cy=".8" r=".7"><stop offset="0" stop-color="#FFE08A"/><stop offset=".5" stop-color="#F29A2E"/><stop offset="1" stop-color="#C0392B"/></radialGradient><linearGradient id="st" x1="0" y1="0" x2="0" y2="1"><stop offset="0" stop-color="#FBF5EC"/><stop offset="1" stop-color="#E4D6C3"/></linearGradient><linearGradient id="milk" x1="0" y1="0" x2="0" y2="1"><stop offset="0" stop-color="#FFFFFF"/><stop offset="1" stop-color="#F1E9DC"/></linearGradient></defs><rect x="30" y="20" width="140" height="176" fill="url(#st)" stroke="#BFAE98" stroke-width="1"/><rect x="62" y="60" width="76" height="136" fill="#7A4A2E" stroke="#B8860B" stroke-width="1.5"/><path d="M100.0,60 V196" fill="none" stroke="#5A3420" stroke-width="1" stroke-linecap="round" stroke-linejoin="round" /><rect x="66.0" y="66.0" width="30.0" height="37.333333333333336" fill="none" stroke="#B8860B" stroke-width=".8"/><rect x="104.0" y="66.0" width="30.0" height="37.333333333333336" fill="none" stroke="#B8860B" stroke-width=".8"/><rect x="66.0" y="111.33333333333334" width="30.0" height="37.333333333333336" fill="none" stroke="#B8860B" stroke-width=".8"/><rect x="104.0" y="111.33333333333334" width="30.0" height="37.333333333333336" fill="none" stroke="#B8860B" stroke-width=".8"/><rect x="66.0" y="156.66666666666669" width="30.0" height="37.333333333333336" fill="none" stroke="#B8860B" stroke-width=".8"/><rect x="104.0" y="156.66666666666669" width="30.0" height="37.333333333333336" fill="none" stroke="#B8860B" stroke-width=".8"/><circle cx="97.0" cy="134.8" r="1.4" fill="url(#g)" /><circle cx="103.0" cy="134.8" r="1.4" fill="url(#g)" /><rect x="56" y="54" width="88" height="8" fill="url(#g)" /><path d="M56,58 H144" fill="none" stroke="#B8860B" stroke-width="2" stroke-linecap="round" stroke-linejoin="round" /><g transform="translate(56.0,58) scale(0.55)"><path d="M0,0 Q-7,16 0,34 Q7,16 0,0Z" fill="#6B8E3A" stroke="#4E6B28" stroke-width="0.8" stroke-linecap="round" stroke-linejoin="round" /></g><circle cx="56.0" cy="58" r="2.6500000000000004" fill="#E8742B" /><g transform="translate(64.0,58) scale(0.55)"><path d="M0,0 Q-7,16 0,34 Q7,16 0,0Z" fill="#6B8E3A" stroke="#4E6B28" stroke-width="0.8" stroke-linecap="round" stroke-linejoin="round" /></g><g transform="translate(72.0,58) scale(0.55)"><path d="M0,0 Q-7,16 0,34 Q7,16 0,0Z" fill="#6B8E3A" stroke="#4E6B28" stroke-width="0.8" stroke-linecap="round" stroke-linejoin="round" /></g><circle cx="72.0" cy="58" r="2.6500000000000004" fill="#E8742B" /><g transform="translate(80.0,58) scale(0.55)"><path d="M0,0 Q-7,16 0,34 Q7,16 0,0Z" fill="#6B8E3A" stroke="#4E6B28" stroke-width="0.8" stroke-linecap="round" stroke-linejoin="round" /></g><g transform="translate(88.0,58) scale(0.55)"><path d="M0,0 Q-7,16 0,34 Q7,16 0,0Z" fill="#6B8E3A" stroke="#4E6B28" stroke-width="0.8" stroke-linecap="round" stroke-linejoin="round" /></g><circle cx="88.0" cy="58" r="2.6500000000000004" fill="#E8742B" /><g transform="translate(96.0,58) scale(0.55)"><path d="M0,0 Q-7,16 0,34 Q7,16 0,0Z" fill="#6B8E3A" stroke="#4E6B28" stroke-width="0.8" stroke-linecap="round" stroke-linejoin="round" /></g><g transform="translate(104.0,58) scale(0.55)"><path d="M0,0 Q-7,16 0,34 Q7,16 0,0Z" fill="#6B8E3A" stroke="#4E6B28" stroke-width="0.8" stroke-linecap="round" stroke-linejoin="round" /></g><circle cx="104.0" cy="58" r="2.6500000000000004" fill="#E8742B" /><g transform="translate(112.0,58) scale(0.55)"><path d="M0,0 Q-7,16 0,34 Q7,16 0,0Z" fill="#6B8E3A" stroke="#4E6B28" stroke-width="0.8" stroke-linecap="round" stroke-linejoin="round" /></g><g transform="translate(120.0,58) scale(0.55)"><path d="M0,0 Q-7,16 0,34 Q7,16 0,0Z" fill="#6B8E3A" stroke="#4E6B28" stroke-width="0.8" stroke-linecap="round" stroke-linejoin="round" /></g><circle cx="120.0" cy="58" r="2.6500000000000004" fill="#E8742B" /><g transform="translate(128.0,58) scale(0.55)"><path d="M0,0 Q-7,16 0,34 Q7,16 0,0Z" fill="#6B8E3A" stroke="#4E6B28" stroke-width="0.8" stroke-linecap="round" stroke-linejoin="round" /></g><g transform="translate(136.0,58) scale(0.55)"><path d="M0,0 Q-7,16 0,34 Q7,16 0,0Z" fill="#6B8E3A" stroke="#4E6B28" stroke-width="0.8" stroke-linecap="round" stroke-linejoin="round" /></g><circle cx="136.0" cy="58" r="2.6500000000000004" fill="#E8742B" /><g transform="translate(144.0,58) scale(0.55)"><path d="M0,0 Q-7,16 0,34 Q7,16 0,0Z" fill="#6B8E3A" stroke="#4E6B28" stroke-width="0.8" stroke-linecap="round" stroke-linejoin="round" /></g><g transform="translate(44 196) scale(0.6)"><path d="M-22,0 Q-30,-30 -14,-40 H14 Q30,-30 22,0Z" fill="#E8B31C" stroke="none" stroke-width="0" stroke-linecap="round" stroke-linejoin="round" /><path d="M-16,-40 H16 V-46 H-16Z" fill="#E8B31C" stroke="none" stroke-width="0" stroke-linecap="round" stroke-linejoin="round" /><path d="M-24,-20 Q0,-12 24,-20" fill="none" stroke="#B8860B" stroke-width="2" stroke-linecap="round" stroke-linejoin="round" /><circle cx="0" cy="-24" r="3" fill="#B3261E" /><path d="M-8,-28 v8 M8,-28 v8" fill="none" stroke="#E8B31C" stroke-width="2" stroke-linecap="round" stroke-linejoin="round" /></g><g transform="translate(156 196) scale(0.6)"><path d="M-22,0 Q-30,-30 -14,-40 H14 Q30,-30 22,0Z" fill="#E8B31C" stroke="none" stroke-width="0" stroke-linecap="round" stroke-linejoin="round" /><path d="M-16,-40 H16 V-46 H-16Z" fill="#E8B31C" stroke="none" stroke-width="0" stroke-linecap="round" stroke-linejoin="round" /><path d="M-24,-20 Q0,-12 24,-20" fill="none" stroke="#B8860B" stroke-width="2" stroke-linecap="round" stroke-linejoin="round" /><circle cx="0" cy="-24" r="3" fill="#B3261E" /><path d="M-8,-28 v8 M8,-28 v8" fill="none" stroke="#E8B31C" stroke-width="2" stroke-linecap="round" stroke-linejoin="round" /></g><rect x="40" y="194" width="120" height="4" fill="#D9C9B4" /></svg>