<svg xmlns="http://www.w3.org/2000/svg" viewBox="0 0 200 200"><defs><linearGradient id="g" x1="0" y1="0" x2="0" y2="1"><stop offset="0" stop-color="#E9C25A"/><stop offset="1" stop-color="#B8860B"/></linearGradient>
<linearGradient id="b" x1="0" y1="0" x2="0" y2="1"><stop offset="0" stop-color="#F3E1C8"/><stop offset=".55" stop-color="#D9A89A"/><stop offset="1" stop-color="#8E4F4A"/></linearGradient>
<linearGradient id="st" x1="0" y1="0" x2="0" y2="1"><stop offset="0" stop-color="#FBF5EC"/><stop offset="1" stop-color="#E4D6C3"/></linearGradient>
<linearGradient id="gl" x1="0" y1="0" x2="1" y2="1"><stop offset="0" stop-color="#3E6FA8"/><stop offset=".35" stop-color="#B3261E"/><stop offset=".65" stop-color="#E9C25A"/><stop offset="1" stop-color="#5E7F34"/></linearGradient>
<radialGradient id="f" cx=".5" cy=".8" r=".7"><stop offset="0" stop-color="#FFE08A"/><stop offset=".5" stop-color="#F29A2E"/><stop offset="1" stop-color="#C0392B"/></radialGradient></defs><g transform="translate(100 262) scale(1.45)"><rect x="-4" y="-140" width="8" height="10" fill="#B97A57" /><path d="M-17,-128 Q0,-134 17,-128 L16,-78 H-16Z" fill="#2A2A33" stroke="none" stroke-width="0" stroke-linecap="round" stroke-linejoin="round" /><path d="M-17,-127 Q-24,-108 -22,-78 L-17,-78 Q-17,-106 -13,-118Z" fill="#2A2A33" stroke="none" stroke-width="0" stroke-linecap="round" stroke-linejoin="round" /><path d="M17,-127 Q24,-108 22,-78 L17,-78 Q17,-106 13,-118Z" fill="#2A2A33" stroke="none" stroke-width="0" stroke-linecap="round" stroke-linejoin="round" /><circle cx="-19.5" cy="-75" r="3" fill="#B97A57" /><circle cx="19.5" cy="-75" r="3" fill="#B97A57" /><path d="M-7,-130 L0,-104 L7,-130Z" fill="#FFFDF8" stroke="none" stroke-width="0" stroke-linecap="round" stroke-linejoin="round" /><path d="M-7,-130 L-2,-110 L-9,-114 Z" fill="#1a1a20" stroke="none" stroke-width="0" stroke-linecap="round" stroke-linejoin="round" /><path d="M7,-130 L2,-110 L9,-114 Z" fill="#1a1a20" stroke="none" stroke-width="0" stroke-linecap="round" stroke-linejoin="round" /><path d="M-4,-129 L0,-126 L4,-129 L4,-123 L0,-126 L-4,-123Z" fill="#6E1F1F" stroke="none" stroke-width="0" stroke-linecap="round" stroke-linejoin="round" /><circle cx="0" cy="-98" r="1.2" fill="#888" /><circle cx="0" cy="-90" r="1.2" fill="#888" /><path d="M-16,-80 L-15,0 H-2 L0,-60 L2,0 H15 L16,-80Z" fill="#2A2A33" stroke="none" stroke-width="0" stroke-linecap="round" stroke-linejoin="round" /><ellipse cx="-8" cy="1" rx="7" ry="2.5" fill="#111"/><ellipse cx="8" cy="1" rx="7" ry="2.5" fill="#111"/><circle cx="-10" cy="-114" r="3" fill="#FFFDF8" /><path d="M-11.5,-114 a1.5,1.5 0 1 1 3,0" fill="none" stroke="#9A5F5A" stroke-width="0.8" stroke-linecap="round" stroke-linejoin="round" /><circle cx="-10" cy="-114" r="0.8999999999999999" fill="#9A5F5A" /><g transform="translate(-10 -112) rotate(200) scale(0.5)"><path d="M0,0 Q-6,-8 0,-18 Q6,-8 0,0Z" fill="#5E7F34" stroke="none" stroke-width="0" stroke-linecap="round" stroke-linejoin="round" /></g><circle cx="0" cy="-149" r="11" fill="#B97A57" /><path d="M-11,-151 Q-12,-164 0,-163 Q12,-164 11,-151 Q4,-158 -11,-151Z" fill="#2B1A17" stroke="none" stroke-width="0" stroke-linecap="round" stroke-linejoin="round" /><path d="M-4,-144 Q0,-146 4,-144" fill="none" stroke="#2B1A17" stroke-width="1.6" stroke-linecap="round" stroke-linejoin="round" /><path d="M-6,-149 q2,1.5 4,0 M2,-149 q2,1.5 4,0" fill="none" stroke="#2B1A17" stroke-width="1" stroke-linecap="round" stroke-linejoin="round" /><path d="M-3,-141 q3,2 6,0" fill="none" stroke="#7A3B2E" stroke-width="1" stroke-linecap="round" stroke-linejoin="round" /></g></svg>