<svg xmlns="http://www.w3.org/2000/svg" viewBox="0 0 200 200"><defs><linearGradient id="g" x1="0" y1="0" x2="0" y2="1"><stop offset="0" stop-color="#E9C25A"/><stop offset="1" stop-color="#B8860B"/></linearGradient>
<linearGradient id="b" x1="0" y1="0" x2="0" y2="1"><stop offset="0" stop-color="#F3E1C8"/><stop offset=".55" stop-color="#D9A89A"/><stop offset="1" stop-color="#8E4F4A"/></linearGradient>
<linearGradient id="st" x1="0" y1="0" x2="0" y2="1"><stop offset="0" stop-color="#FBF5EC"/><stop offset="1" stop-color="#E4D6C3"/></linearGradient>
<linearGradient id="gl" x1="0" y1="0" x2="1" y2="1"><stop offset="0" stop-color="#3E6FA8"/><stop offset=".35" stop-color="#B3261E"/><stop offset=".65" stop-color="#E9C25A"/><stop offset="1" stop-color="#5E7F34"/></linearGradient>
<radialGradient id="f" cx=".5" cy=".8" r=".7"><stop offset="0" stop-color="#FFE08A"/><stop offset=".5" stop-color="#F29A2E"/><stop offset="1" stop-color="#C0392B"/></radialGradient></defs><ellipse cx="100" cy="194" rx="20.0" ry="5" fill="#D9A89A" opacity=".5"/><g transform="translate(100 190) scale(0.72)"><rect x="-4" y="-140" width="8" height="10" fill="#B97A57" /><path d="M-15,-128 Q0,-133 15,-128 Q20,-110 18,-84 L14,-84 Q13,-106 11,-118Z" fill="#B97A57" stroke="none" stroke-width="0" stroke-linecap="round" stroke-linejoin="round" /><path d="M-15,-128 Q-20,-110 -18,-84 L-14,-84 Q-13,-106 -11,-118Z" fill="#B97A57" stroke="none" stroke-width="0" stroke-linecap="round" stroke-linejoin="round" /><path d="M-12,-122 Q-6,-116 0,-120 Q6,-116 12,-122 L11,-96 H-11Z" fill="#F3E1C8" stroke="#D9C9B4" stroke-width="0.8" stroke-linecap="round" stroke-linejoin="round" /><path d="M-11,-96 Q-16.8,-50 -28,0 H28 Q16.8,-50 11,-96Z" fill="#F3E1C8" stroke="#D9C9B4" stroke-width="1" stroke-linecap="round" stroke-linejoin="round" /><path d="M-10.0,-90 Q-15.400000000000002,-45 -25.2,-2" fill="none" stroke="#D9C9B4" stroke-width="0.8" stroke-linecap="round" stroke-linejoin="round" /><path d="M-4.0,-90 Q-6.160000000000001,-45 -10.080000000000002,-2" fill="none" stroke="#D9C9B4" stroke-width="0.8" stroke-linecap="round" stroke-linejoin="round" /><path d="M3.0,-90 Q4.620000000000001,-45 7.5600000000000005,-2" fill="none" stroke="#D9C9B4" stroke-width="0.8" stroke-linecap="round" stroke-linejoin="round" /><path d="M9.0,-90 Q13.860000000000001,-45 22.68,-2" fill="none" stroke="#D9C9B4" stroke-width="0.8" stroke-linecap="round" stroke-linejoin="round" /><rect x="-11" y="-99" width="22" height="3" fill="url(#g)" /><path d="M-7,-128 Q0,-120 7,-128" fill="none" stroke="#B8860B" stroke-width="1" stroke-linecap="round" stroke-linejoin="round" /><circle cx="0" cy="-121" r="1.6" fill="url(#g)" /><circle cx="0" cy="-151" r="13" fill="#2B1A17" /><circle cx="0" cy="-164" r="7" fill="#2B1A17" /><circle cx="0" cy="-149" r="11" fill="#B97A57" /><path d="M-11,-148 Q-12,-162 0,-162 Q12,-162 11,-148 Q6,-158 0,-158 Q-6,-158 -11,-148Z" fill="#2B1A17" stroke="none" stroke-width="0" stroke-linecap="round" stroke-linejoin="round" /><circle cx="-11" cy="-145" r="1.6" fill="#EDE8E0" /><circle cx="11" cy="-145" r="1.6" fill="#EDE8E0" /><path d="M-6,-149 q2,1.5 4,0 M2,-149 q2,1.5 4,0" fill="none" stroke="#2B1A17" stroke-width="1" stroke-linecap="round" stroke-linejoin="round" /><path d="M-3,-143 q3,2 6,0" fill="none" stroke="#7A3B2E" stroke-width="1" stroke-linecap="round" stroke-linejoin="round" /><circle cx="-4" cy="-146" r="2" fill="#E59A8A" opacity=".35"/><circle cx="4" cy="-146" r="2" fill="#E59A8A" opacity=".35"/><path d="M-10,-161 L-6,-166 L-3,-162 L0,-168 L3,-162 L6,-166 L10,-161 Q0,-158 -10,-161Z" fill="url(#g)" stroke="none" stroke-width="0" stroke-linecap="round" stroke-linejoin="round" /></g><path d="M80,130 Q100,146 120,130 L116,122 H84Z" fill="#A9713A" stroke="none" stroke-width="0" stroke-linecap="round" stroke-linejoin="round" /><circle cx="86" cy="122" r="3" fill="#FFFDF8" /><path d="M84.5,122 a1.5,1.5 0 1 1 3,0" fill="none" stroke="#9A5F5A" stroke-width="0.8" stroke-linecap="round" stroke-linejoin="round" /><circle cx="86" cy="122" r="0.8999999999999999" fill="#9A5F5A" /><circle cx="93" cy="122" r="3" fill="#D9A89A" /><path d="M91.5,122 a1.5,1.5 0 1 1 3,0" fill="none" stroke="#9A5F5A" stroke-width="0.8" stroke-linecap="round" stroke-linejoin="round" /><circle cx="93" cy="122" r="0.8999999999999999" fill="#9A5F5A" /><circle cx="100" cy="122" r="3" fill="#FFFDF8" /><path d="M98.5,122 a1.5,1.5 0 1 1 3,0" fill="none" stroke="#9A5F5A" stroke-width="0.8" stroke-linecap="round" stroke-linejoin="round" /><circle cx="100" cy="122" r="0.8999999999999999" fill="#9A5F5A" /><circle cx="107" cy="122" r="3" fill="#D9A89A" /><path d="M105.5,122 a1.5,1.5 0 1 1 3,0" fill="none" stroke="#9A5F5A" stroke-width="0.8" stroke-linecap="round" stroke-linejoin="round" /><circle cx="107" cy="122" r="0.8999999999999999" fill="#9A5F5A" /><circle cx="114" cy="122" r="3" fill="#FFFDF8" /><path d="M112.5,122 a1.5,1.5 0 1 1 3,0" fill="none" stroke="#9A5F5A" stroke-width="0.8" stroke-linecap="round" stroke-linejoin="round" /><circle cx="114" cy="122" r="0.8999999999999999" fill="#9A5F5A" /><path d="M84,122 Q100,96 116,122" fill="none" stroke="#A9713A" stroke-width="2" stroke-linecap="round" stroke-linejoin="round" /></svg>