<svg xmlns="http://www.w3.org/2000/svg" viewBox="0 0 200 200"><defs><linearGradient id="g" x1="0" y1="0" x2="0" y2="1"><stop offset="0" stop-color="#E9C25A"/><stop offset="1" stop-color="#B8860B"/></linearGradient>
<linearGradient id="b" x1="0" y1="0" x2="0" y2="1"><stop offset="0" stop-color="#F3E1C8"/><stop offset=".55" stop-color="#D9A89A"/><stop offset="1" stop-color="#8E4F4A"/></linearGradient>
<linearGradient id="st" x1="0" y1="0" x2="0" y2="1"><stop offset="0" stop-color="#FBF5EC"/><stop offset="1" stop-color="#E4D6C3"/></linearGradient>
<linearGradient id="gl" x1="0" y1="0" x2="1" y2="1"><stop offset="0" stop-color="#3E6FA8"/><stop offset=".35" stop-color="#B3261E"/><stop offset=".65" stop-color="#E9C25A"/><stop offset="1" stop-color="#5E7F34"/></linearGradient>
<radialGradient id="f" cx=".5" cy=".8" r=".7"><stop offset="0" stop-color="#FFE08A"/><stop offset=".5" stop-color="#F29A2E"/><stop offset="1" stop-color="#C0392B"/></radialGradient></defs><ellipse cx="100" cy="196" rx="90.0" ry="5" fill="#D9A89A" opacity=".5"/><rect x="24" y="60" width="36" height="134" fill="url(#st)" stroke="#BFAE98" stroke-width="1"/><rect x="140" y="60" width="36" height="134" fill="url(#st)" stroke="#BFAE98" stroke-width="1"/><rect x="60" y="86" width="80" height="108" fill="url(#st)" stroke="#BFAE98" stroke-width="1"/><path d="M24,60 L42,10 L60,60Z" fill="#FFFDF8" stroke="#BFAE98" stroke-width="1" stroke-linecap="round" stroke-linejoin="round" /><rect x="40.88" y="6" width="2.24" height="16" fill="url(#g)" /><rect x="36.72" y="10.0" width="10.56" height="2.24" fill="url(#g)" /><circle cx="42" cy="74" r="6" fill="url(#gl)" /><path d="M140,60 L158,10 L176,60Z" fill="#FFFDF8" stroke="#BFAE98" stroke-width="1" stroke-linecap="round" stroke-linejoin="round" /><rect x="156.88" y="6" width="2.24" height="16" fill="url(#g)" /><rect x="152.72" y="10.0" width="10.56" height="2.24" fill="url(#g)" /><circle cx="158" cy="74" r="6" fill="url(#gl)" /><path d="M60,88 Q70,62 100,50 Q130,62 140,88Z" fill="#FFFDF8" stroke="#BFAE98" stroke-width="1" stroke-linecap="round" stroke-linejoin="round" /><rect x="98.46" y="26" width="3.08" height="22" fill="url(#g)" /><rect x="92.74" y="31.5" width="14.520000000000001" height="3.08" fill="url(#g)" /><path d="M86,194 V158.0 Q100.0,138.4 114,158.0 V194Z" fill="#7A4A2E" stroke="#B8860B" stroke-width="1.5" stroke-linecap="round" stroke-linejoin="round" /><path d="M100.0,146.8 V194" fill="none" stroke="#5A3420" stroke-width="1" stroke-linecap="round" stroke-linejoin="round" /><circle cx="97.0" cy="174.0" r="1.2" fill="url(#g)" /><circle cx="103.0" cy="174.0" r="1.2" fill="url(#g)" /><path d="M70,126 V107.0 Q70,100 77.0,95.8 Q84,100 84,107.0 V126Z" fill="url(#gl)" stroke="#B8860B" stroke-width="1.2" stroke-linecap="round" stroke-linejoin="round" /><path d="M116,126 V107.0 Q116,100 123.0,95.8 Q130,100 130,107.0 V126Z" fill="url(#gl)" stroke="#B8860B" stroke-width="1.2" stroke-linecap="round" stroke-linejoin="round" /><rect x="60" y="90" width="2" height="104" fill="#BFAE98" /><rect x="138" y="90" width="2" height="104" fill="#BFAE98" /></svg>