<svg xmlns="http://www.w3.org/2000/svg" viewBox="0 0 200 200"><defs><linearGradient id="g" x1="0" y1="0" x2="0" y2="1"><stop offset="0" stop-color="#E9C25A"/><stop offset="1" stop-color="#B8860B"/></linearGradient>
<linearGradient id="b" x1="0" y1="0" x2="0" y2="1"><stop offset="0" stop-color="#F3E1C8"/><stop offset=".55" stop-color="#D9A89A"/><stop offset="1" stop-color="#8E4F4A"/></linearGradient>
<linearGradient id="st" x1="0" y1="0" x2="0" y2="1"><stop offset="0" stop-color="#FBF5EC"/><stop offset="1" stop-color="#E4D6C3"/></linearGradient>
<linearGradient id="gl" x1="0" y1="0" x2="1" y2="1"><stop offset="0" stop-color="#3E6FA8"/><stop offset=".35" stop-color="#B3261E"/><stop offset=".65" stop-color="#E9C25A"/><stop offset="1" stop-color="#5E7F34"/></linearGradient>
<radialGradient id="f" cx=".5" cy=".8" r=".7"><stop offset="0" stop-color="#FFE08A"/><stop offset=".5" stop-color="#F29A2E"/><stop offset="1" stop-color="#C0392B"/></radialGradient></defs><ellipse cx="100" cy="196" rx="95.0" ry="5" fill="#D9A89A" opacity=".5"/><rect x="14" y="50" width="30" height="146" fill="url(#st)" stroke="#BFAE98" stroke-width="1"/><rect x="156" y="50" width="30" height="146" fill="url(#st)" stroke="#BFAE98" stroke-width="1"/><rect x="44" y="80" width="112" height="116" fill="url(#st)" stroke="#BFAE98" stroke-width="1"/><path d="M14,50 L29,0 L44,50Z" fill="#FFFDF8" stroke="#BFAE98" stroke-width="1" stroke-linecap="round" stroke-linejoin="round" /><rect x="28.02" y="-8" width="1.9600000000000002" height="14" fill="url(#g)" /><rect x="24.38" y="-4.5" width="9.24" height="1.9600000000000002" fill="url(#g)" /><path d="M156,50 L171,0 L186,50Z" fill="#FFFDF8" stroke="#BFAE98" stroke-width="1" stroke-linecap="round" stroke-linejoin="round" /><rect x="170.02" y="-8" width="1.9600000000000002" height="14" fill="url(#g)" /><rect x="166.38" y="-4.5" width="9.24" height="1.9600000000000002" fill="url(#g)" /><path d="M44,82 L100,40 L156,82Z" fill="#FFFDF8" stroke="#BFAE98" stroke-width="1" stroke-linecap="round" stroke-linejoin="round" /><rect x="98.32" y="16" width="3.3600000000000003" height="24" fill="url(#g)" /><rect x="92.08" y="22.0" width="15.84" height="3.3600000000000003" fill="url(#g)" /><path d="M84,196 V162.0 Q100.0,139.6 116,162.0 V196Z" fill="#7A4A2E" stroke="#B8860B" stroke-width="1.5" stroke-linecap="round" stroke-linejoin="round" /><path d="M100.0,149.2 V196" fill="none" stroke="#5A3420" stroke-width="1" stroke-linecap="round" stroke-linejoin="round" /><circle cx="97.0" cy="176.0" r="1.2" fill="url(#g)" /><circle cx="103.0" cy="176.0" r="1.2" fill="url(#g)" /><path d="M54,126 V104.0 Q54,98 60.0,94.4 Q66,98 66,104.0 V126Z" fill="url(#gl)" stroke="#B8860B" stroke-width="1.2" stroke-linecap="round" stroke-linejoin="round" /><path d="M76,126 V104.0 Q76,98 82.0,94.4 Q88,98 88,104.0 V126Z" fill="url(#gl)" stroke="#B8860B" stroke-width="1.2" stroke-linecap="round" stroke-linejoin="round" /><path d="M112,126 V104.0 Q112,98 118.0,94.4 Q124,98 124,104.0 V126Z" fill="url(#gl)" stroke="#B8860B" stroke-width="1.2" stroke-linecap="round" stroke-linejoin="round" /><path d="M134,126 V104.0 Q134,98 140.0,94.4 Q146,98 146,104.0 V126Z" fill="url(#gl)" stroke="#B8860B" stroke-width="1.2" stroke-linecap="round" stroke-linejoin="round" /><circle cx="100" cy="62" r="9" fill="url(#gl)" stroke="#B8860B" stroke-width="1.5"/><g transform="rotate(0.0 100 62)"><path d="M100,62 V53" fill="none" stroke="#B8860B" stroke-width="1" stroke-linecap="round" stroke-linejoin="round" /></g><g transform="rotate(45.0 100 62)"><path d="M100,62 V53" fill="none" stroke="#B8860B" stroke-width="1" stroke-linecap="round" stroke-linejoin="round" /></g><g transform="rotate(90.0 100 62)"><path d="M100,62 V53" fill="none" stroke="#B8860B" stroke-width="1" stroke-linecap="round" stroke-linejoin="round" /></g><g transform="rotate(135.0 100 62)"><path d="M100,62 V53" fill="none" stroke="#B8860B" stroke-width="1" stroke-linecap="round" stroke-linejoin="round" /></g><g transform="rotate(180.0 100 62)"><path d="M100,62 V53" fill="none" stroke="#B8860B" stroke-width="1" stroke-linecap="round" stroke-linejoin="round" /></g><g transform="rotate(225.0 100 62)"><path d="M100,62 V53" fill="none" stroke="#B8860B" stroke-width="1" stroke-linecap="round" stroke-linejoin="round" /></g><g transform="rotate(270.0 100 62)"><path d="M100,62 V53" fill="none" stroke="#B8860B" stroke-width="1" stroke-linecap="round" stroke-linejoin="round" /></g><g transform="rotate(315.0 100 62)"><path d="M100,62 V53" fill="none" stroke="#B8860B" stroke-width="1" stroke-linecap="round" stroke-linejoin="round" /></g><circle cx="100" cy="62" r="2.6999999999999997" fill="url(#g)" /><path d="M23,90 V76.0 Q23,70 29.0,66.4 Q35,70 35,76.0 V90Z" fill="url(#gl)" stroke="#B8860B" stroke-width="1.2" stroke-linecap="round" stroke-linejoin="round" /><path d="M23,130 V116.0 Q23,110 29.0,106.4 Q35,110 35,116.0 V130Z" fill="url(#gl)" stroke="#B8860B" stroke-width="1.2" stroke-linecap="round" stroke-linejoin="round" /><path d="M23,170 V156.0 Q23,150 29.0,146.4 Q35,150 35,156.0 V170Z" fill="url(#gl)" stroke="#B8860B" stroke-width="1.2" stroke-linecap="round" stroke-linejoin="round" /><path d="M165,90 V76.0 Q165,70 171.0,66.4 Q177,70 177,76.0 V90Z" fill="url(#gl)" stroke="#B8860B" stroke-width="1.2" stroke-linecap="round" stroke-linejoin="round" /><path d="M165,130 V116.0 Q165,110 171.0,106.4 Q177,110 177,116.0 V130Z" fill="url(#gl)" stroke="#B8860B" stroke-width="1.2" stroke-linecap="round" stroke-linejoin="round" /><path d="M165,170 V156.0 Q165,150 171.0,146.4 Q177,150 177,156.0 V170Z" fill="url(#gl)" stroke="#B8860B" stroke-width="1.2" stroke-linecap="round" stroke-linejoin="round" /></svg>