<svg xmlns="http://www.w3.org/2000/svg" viewBox="0 0 130 130"><defs><linearGradient id="g" x1="0" y1="0" x2="0" y2="1"><stop offset="0" stop-color="#E9C25A"/><stop offset="1" stop-color="#B8860B"/></linearGradient>
<linearGradient id="b" x1="0" y1="0" x2="0" y2="1"><stop offset="0" stop-color="#F3E1C8"/><stop offset=".55" stop-color="#D9A89A"/><stop offset="1" stop-color="#8E4F4A"/></linearGradient>
<linearGradient id="st" x1="0" y1="0" x2="0" y2="1"><stop offset="0" stop-color="#FBF5EC"/><stop offset="1" stop-color="#E4D6C3"/></linearGradient>
<linearGradient id="gl" x1="0" y1="0" x2="1" y2="1"><stop offset="0" stop-color="#3E6FA8"/><stop offset=".35" stop-color="#B3261E"/><stop offset=".65" stop-color="#E9C25A"/><stop offset="1" stop-color="#5E7F34"/></linearGradient>
<radialGradient id="f" cx=".5" cy=".8" r=".7"><stop offset="0" stop-color="#FFE08A"/><stop offset=".5" stop-color="#F29A2E"/><stop offset="1" stop-color="#C0392B"/></radialGradient></defs><path d="M4,4 Q80,10 124,4 M4,4 Q10,80 4,124" fill="none" stroke="#B8860B" stroke-width="2" stroke-linecap="round" stroke-linejoin="round" /><circle cx="22" cy="22" r="14" fill="#FFFDF8" /><path d="M15.0,22 a7.0,7.0 0 1 1 14,0" fill="none" stroke="#9A5F5A" stroke-width="0.8" stroke-linecap="round" stroke-linejoin="round" /><circle cx="22" cy="22" r="4.2" fill="#9A5F5A" /><circle cx="22" cy="22" r="7" fill="#D9A89A" /><path d="M18.5,22 a3.5,3.5 0 1 1 7,0" fill="none" stroke="#9A5F5A" stroke-width="0.8" stroke-linecap="round" stroke-linejoin="round" /><circle cx="22" cy="22" r="2.1" fill="#9A5F5A" /><circle cx="46" cy="14" r="8" fill="#D9A89A" /><path d="M42.0,14 a4.0,4.0 0 1 1 8,0" fill="none" stroke="#9A5F5A" stroke-width="0.8" stroke-linecap="round" stroke-linejoin="round" /><circle cx="46" cy="14" r="2.4" fill="#9A5F5A" /><circle cx="14" cy="46" r="8" fill="#D9A89A" /><path d="M10.0,46 a4.0,4.0 0 1 1 8,0" fill="none" stroke="#9A5F5A" stroke-width="0.8" stroke-linecap="round" stroke-linejoin="round" /><circle cx="14" cy="46" r="2.4" fill="#9A5F5A" /><circle cx="66" cy="10" r="5" fill="#FFFDF8" /><path d="M63.5,10 a2.5,2.5 0 1 1 5,0" fill="none" stroke="#9A5F5A" stroke-width="0.8" stroke-linecap="round" stroke-linejoin="round" /><circle cx="66" cy="10" r="1.5" fill="#9A5F5A" /><circle cx="10" cy="66" r="5" fill="#FFFDF8" /><path d="M7.5,66 a2.5,2.5 0 1 1 5,0" fill="none" stroke="#9A5F5A" stroke-width="0.8" stroke-linecap="round" stroke-linejoin="round" /><circle cx="10" cy="66" r="1.5" fill="#9A5F5A" /><g transform="translate(40 30) rotate(120) scale(1.2)"><path d="M0,0 Q-6,-8 0,-18 Q6,-8 0,0Z" fill="#5E7F34" stroke="none" stroke-width="0" stroke-linecap="round" stroke-linejoin="round" /></g><g transform="translate(30 40) rotate(-30) scale(1.2)"><path d="M0,0 Q-6,-8 0,-18 Q6,-8 0,0Z" fill="#5E7F34" stroke="none" stroke-width="0" stroke-linecap="round" stroke-linejoin="round" /></g><g transform="translate(84 8) rotate(100) scale(1.2)"><path d="M0,0 Q-6,-8 0,-18 Q6,-8 0,0Z" fill="#5E7F34" stroke="none" stroke-width="0" stroke-linecap="round" stroke-linejoin="round" /></g><g transform="translate(8 84) rotate(190) scale(1.2)"><path d="M0,0 Q-6,-8 0,-18 Q6,-8 0,0Z" fill="#5E7F34" stroke="none" stroke-width="0" stroke-linecap="round" stroke-linejoin="round" /></g></svg>