<svg xmlns="http://www.w3.org/2000/svg" viewBox="0 0 200 200"><defs><linearGradient id="g" x1="0" y1="0" x2="0" y2="1"><stop offset="0" stop-color="#E9C25A"/><stop offset="1" stop-color="#B8860B"/></linearGradient>
<linearGradient id="b" x1="0" y1="0" x2="0" y2="1"><stop offset="0" stop-color="#F3E1C8"/><stop offset=".55" stop-color="#D9A89A"/><stop offset="1" stop-color="#8E4F4A"/></linearGradient>
<linearGradient id="st" x1="0" y1="0" x2="0" y2="1"><stop offset="0" stop-color="#FBF5EC"/><stop offset="1" stop-color="#E4D6C3"/></linearGradient>
<linearGradient id="gl" x1="0" y1="0" x2="1" y2="1"><stop offset="0" stop-color="#3E6FA8"/><stop offset=".35" stop-color="#B3261E"/><stop offset=".65" stop-color="#E9C25A"/><stop offset="1" stop-color="#5E7F34"/></linearGradient>
<radialGradient id="f" cx=".5" cy=".8" r=".7"><stop offset="0" stop-color="#FFE08A"/><stop offset=".5" stop-color="#F29A2E"/><stop offset="1" stop-color="#C0392B"/></radialGradient></defs><g transform="translate(100 100) scale(1.6)"><path d="M0,20 Q-30,20 -40,0 Q-20,6 -10,0 Q-30,-30 -6,-50 Q-4,-20 6,-6 Q12,-16 20,-16 Q28,-14 30,-8 L38,-6 L30,-2 Q30,20 0,20Z" fill="#FFFDF8" stroke="#D9C9B4" stroke-width="1" stroke-linecap="round" stroke-linejoin="round" /><circle cx="22" cy="-10" r="1.4" fill="#2B1A17" /><path d="M36,-4 Q50,4 58,-2" fill="none" stroke="#5E7F34" stroke-width="1.2" stroke-linecap="round" stroke-linejoin="round" /><g transform="translate(40 -2.0) rotate(60) scale(0.5)"><path d="M0,0 Q-6,-8 0,-18 Q6,-8 0,0Z" fill="#5E7F34" stroke="none" stroke-width="0" stroke-linecap="round" stroke-linejoin="round" /></g><g transform="translate(46 -1.5) rotate(120) scale(0.5)"><path d="M0,0 Q-6,-8 0,-18 Q6,-8 0,0Z" fill="#5E7F34" stroke="none" stroke-width="0" stroke-linecap="round" stroke-linejoin="round" /></g><g transform="translate(52 -1.0) rotate(60) scale(0.5)"><path d="M0,0 Q-6,-8 0,-18 Q6,-8 0,0Z" fill="#5E7F34" stroke="none" stroke-width="0" stroke-linecap="round" stroke-linejoin="round" /></g></g></svg>