<svg xmlns="http://www.w3.org/2000/svg" viewBox="0 0 200 200"><defs><linearGradient id="g" x1="0" y1="0" x2="0" y2="1"><stop offset="0" stop-color="#E9C25A"/><stop offset="1" stop-color="#B8860B"/></linearGradient>
<linearGradient id="b" x1="0" y1="0" x2="0" y2="1"><stop offset="0" stop-color="#F3E1C8"/><stop offset=".55" stop-color="#D9A89A"/><stop offset="1" stop-color="#8E4F4A"/></linearGradient>
<radialGradient id="f" cx=".5" cy=".8" r=".7"><stop offset="0" stop-color="#FFE08A"/><stop offset=".5" stop-color="#F29A2E"/><stop offset="1" stop-color="#C0392B"/></radialGradient></defs><g transform="translate(35.0 30.0)"><g transform="rotate(0.0 0 0)"><path d="M0,0 Q-1.92,-3.2 0,-4.800000000000001 Q1.92,-3.2 0,0Z" fill="#B3261E" stroke="none" stroke-width="0.5" stroke-linecap="round" stroke-linejoin="round" /></g><g transform="rotate(72.0 0 0)"><path d="M0,0 Q-1.92,-3.2 0,-4.800000000000001 Q1.92,-3.2 0,0Z" fill="#B3261E" stroke="none" stroke-width="0.5" stroke-linecap="round" stroke-linejoin="round" /></g><g transform="rotate(144.0 0 0)"><path d="M0,0 Q-1.92,-3.2 0,-4.800000000000001 Q1.92,-3.2 0,0Z" fill="#B3261E" stroke="none" stroke-width="0.5" stroke-linecap="round" stroke-linejoin="round" /></g><g transform="rotate(216.0 0 0)"><path d="M0,0 Q-1.92,-3.2 0,-4.800000000000001 Q1.92,-3.2 0,0Z" fill="#B3261E" stroke="none" stroke-width="0.5" stroke-linecap="round" stroke-linejoin="round" /></g><g transform="rotate(288.0 0 0)"><path d="M0,0 Q-1.92,-3.2 0,-4.800000000000001 Q1.92,-3.2 0,0Z" fill="#B3261E" stroke="none" stroke-width="0.5" stroke-linecap="round" stroke-linejoin="round" /></g><circle cx="0" cy="0" r="1.2800000000000002" fill="#F4E27A" /></g><g transform="translate(39.375 57.31264508225796)"><g transform="rotate(0.0 0 0)"><path d="M0,0 Q-1.92,-3.2 0,-4.800000000000001 Q1.92,-3.2 0,0Z" fill="#FFF7EE" stroke="#C9A98A" stroke-width="0.5" stroke-linecap="round" stroke-linejoin="round" /></g><g transform="rotate(72.0 0 0)"><path d="M0,0 Q-1.92,-3.2 0,-4.800000000000001 Q1.92,-3.2 0,0Z" fill="#FFF7EE" stroke="#C9A98A" stroke-width="0.5" stroke-linecap="round" stroke-linejoin="round" /></g><g transform="rotate(144.0 0 0)"><path d="M0,0 Q-1.92,-3.2 0,-4.800000000000001 Q1.92,-3.2 0,0Z" fill="#FFF7EE" stroke="#C9A98A" stroke-width="0.5" stroke-linecap="round" stroke-linejoin="round" /></g><g transform="rotate(216.0 0 0)"><path d="M0,0 Q-1.92,-3.2 0,-4.800000000000001 Q1.92,-3.2 0,0Z" fill="#FFF7EE" stroke="#C9A98A" stroke-width="0.5" stroke-linecap="round" stroke-linejoin="round" /></g><g transform="rotate(288.0 0 0)"><path d="M0,0 Q-1.92,-3.2 0,-4.800000000000001 Q1.92,-3.2 0,0Z" fill="#FFF7EE" stroke="#C9A98A" stroke-width="0.5" stroke-linecap="round" stroke-linejoin="round" /></g><circle cx="0" cy="0" r="1.2800000000000002" fill="#F4E27A" /></g><g transform="translate(43.75 83.57568053111257)"><g transform="rotate(0.0 0 0)"><path d="M0,0 Q-1.92,-3.2 0,-4.800000000000001 Q1.92,-3.2 0,0Z" fill="#FFF7EE" stroke="#C9A98A" stroke-width="0.5" stroke-linecap="round" stroke-linejoin="round" /></g><g transform="rotate(72.0 0 0)"><path d="M0,0 Q-1.92,-3.2 0,-4.800000000000001 Q1.92,-3.2 0,0Z" fill="#FFF7EE" stroke="#C9A98A" stroke-width="0.5" stroke-linecap="round" stroke-linejoin="round" /></g><g transform="rotate(144.0 0 0)"><path d="M0,0 Q-1.92,-3.2 0,-4.800000000000001 Q1.92,-3.2 0,0Z" fill="#FFF7EE" stroke="#C9A98A" stroke-width="0.5" stroke-linecap="round" stroke-linejoin="round" /></g><g transform="rotate(216.0 0 0)"><path d="M0,0 Q-1.92,-3.2 0,-4.800000000000001 Q1.92,-3.2 0,0Z" fill="#FFF7EE" stroke="#C9A98A" stroke-width="0.5" stroke-linecap="round" stroke-linejoin="round" /></g><g transform="rotate(288.0 0 0)"><path d="M0,0 Q-1.92,-3.2 0,-4.800000000000001 Q1.92,-3.2 0,0Z" fill="#FFF7EE" stroke="#C9A98A" stroke-width="0.5" stroke-linecap="round" stroke-linejoin="round" /></g><circle cx="0" cy="0" r="1.2800000000000002" fill="#F4E27A" /></g><g transform="translate(48.125 107.77983262274431)"><g transform="rotate(0.0 0 0)"><path d="M0,0 Q-1.92,-3.2 0,-4.800000000000001 Q1.92,-3.2 0,0Z" fill="#B3261E" stroke="none" stroke-width="0.5" stroke-linecap="round" stroke-linejoin="round" /></g><g transform="rotate(72.0 0 0)"><path d="M0,0 Q-1.92,-3.2 0,-4.800000000000001 Q1.92,-3.2 0,0Z" fill="#B3261E" stroke="none" stroke-width="0.5" stroke-linecap="round" stroke-linejoin="round" /></g><g transform="rotate(144.0 0 0)"><path d="M0,0 Q-1.92,-3.2 0,-4.800000000000001 Q1.92,-3.2 0,0Z" fill="#B3261E" stroke="none" stroke-width="0.5" stroke-linecap="round" stroke-linejoin="round" /></g><g transform="rotate(216.0 0 0)"><path d="M0,0 Q-1.92,-3.2 0,-4.800000000000001 Q1.92,-3.2 0,0Z" fill="#B3261E" stroke="none" stroke-width="0.5" stroke-linecap="round" stroke-linejoin="round" /></g><g transform="rotate(288.0 0 0)"><path d="M0,0 Q-1.92,-3.2 0,-4.800000000000001 Q1.92,-3.2 0,0Z" fill="#B3261E" stroke="none" stroke-width="0.5" stroke-linecap="round" stroke-linejoin="round" /></g><circle cx="0" cy="0" r="1.2800000000000002" fill="#F4E27A" /></g><g transform="translate(52.5 128.99494936611666)"><g transform="rotate(0.0 0 0)"><path d="M0,0 Q-1.92,-3.2 0,-4.800000000000001 Q1.92,-3.2 0,0Z" fill="#FFF7EE" stroke="#C9A98A" stroke-width="0.5" stroke-linecap="round" stroke-linejoin="round" /></g><g transform="rotate(72.0 0 0)"><path d="M0,0 Q-1.92,-3.2 0,-4.800000000000001 Q1.92,-3.2 0,0Z" fill="#FFF7EE" stroke="#C9A98A" stroke-width="0.5" stroke-linecap="round" stroke-linejoin="round" /></g><g transform="rotate(144.0 0 0)"><path d="M0,0 Q-1.92,-3.2 0,-4.800000000000001 Q1.92,-3.2 0,0Z" fill="#FFF7EE" stroke="#C9A98A" stroke-width="0.5" stroke-linecap="round" stroke-linejoin="round" /></g><g transform="rotate(216.0 0 0)"><path d="M0,0 Q-1.92,-3.2 0,-4.800000000000001 Q1.92,-3.2 0,0Z" fill="#FFF7EE" stroke="#C9A98A" stroke-width="0.5" stroke-linecap="round" stroke-linejoin="round" /></g><g transform="rotate(288.0 0 0)"><path d="M0,0 Q-1.92,-3.2 0,-4.800000000000001 Q1.92,-3.2 0,0Z" fill="#FFF7EE" stroke="#C9A98A" stroke-width="0.5" stroke-linecap="round" stroke-linejoin="round" /></g><circle cx="0" cy="0" r="1.2800000000000002" fill="#F4E27A" /></g><g transform="translate(56.875 146.40574572235633)"><g transform="rotate(0.0 0 0)"><path d="M0,0 Q-1.92,-3.2 0,-4.800000000000001 Q1.92,-3.2 0,0Z" fill="#FFF7EE" stroke="#C9A98A" stroke-width="0.5" stroke-linecap="round" stroke-linejoin="round" /></g><g transform="rotate(72.0 0 0)"><path d="M0,0 Q-1.92,-3.2 0,-4.800000000000001 Q1.92,-3.2 0,0Z" fill="#FFF7EE" stroke="#C9A98A" stroke-width="0.5" stroke-linecap="round" stroke-linejoin="round" /></g><g transform="rotate(144.0 0 0)"><path d="M0,0 Q-1.92,-3.2 0,-4.800000000000001 Q1.92,-3.2 0,0Z" fill="#FFF7EE" stroke="#C9A98A" stroke-width="0.5" stroke-linecap="round" stroke-linejoin="round" /></g><g transform="rotate(216.0 0 0)"><path d="M0,0 Q-1.92,-3.2 0,-4.800000000000001 Q1.92,-3.2 0,0Z" fill="#FFF7EE" stroke="#C9A98A" stroke-width="0.5" stroke-linecap="round" stroke-linejoin="round" /></g><g transform="rotate(288.0 0 0)"><path d="M0,0 Q-1.92,-3.2 0,-4.800000000000001 Q1.92,-3.2 0,0Z" fill="#FFF7EE" stroke="#C9A98A" stroke-width="0.5" stroke-linecap="round" stroke-linejoin="round" /></g><circle cx="0" cy="0" r="1.2800000000000002" fill="#F4E27A" /></g><g transform="translate(61.25 159.34313455158014)"><g transform="rotate(0.0 0 0)"><path d="M0,0 Q-1.92,-3.2 0,-4.800000000000001 Q1.92,-3.2 0,0Z" fill="#B3261E" stroke="none" stroke-width="0.5" stroke-linecap="round" stroke-linejoin="round" /></g><g transform="rotate(72.0 0 0)"><path d="M0,0 Q-1.92,-3.2 0,-4.800000000000001 Q1.92,-3.2 0,0Z" fill="#B3261E" stroke="none" stroke-width="0.5" stroke-linecap="round" stroke-linejoin="round" /></g><g transform="rotate(144.0 0 0)"><path d="M0,0 Q-1.92,-3.2 0,-4.800000000000001 Q1.92,-3.2 0,0Z" fill="#B3261E" stroke="none" stroke-width="0.5" stroke-linecap="round" stroke-linejoin="round" /></g><g transform="rotate(216.0 0 0)"><path d="M0,0 Q-1.92,-3.2 0,-4.800000000000001 Q1.92,-3.2 0,0Z" fill="#B3261E" stroke="none" stroke-width="0.5" stroke-linecap="round" stroke-linejoin="round" /></g><g transform="rotate(288.0 0 0)"><path d="M0,0 Q-1.92,-3.2 0,-4.800000000000001 Q1.92,-3.2 0,0Z" fill="#B3261E" stroke="none" stroke-width="0.5" stroke-linecap="round" stroke-linejoin="round" /></g><circle cx="0" cy="0" r="1.2800000000000002" fill="#F4E27A" /></g><g transform="translate(65.625 167.30993925645225)"><g transform="rotate(0.0 0 0)"><path d="M0,0 Q-1.92,-3.2 0,-4.800000000000001 Q1.92,-3.2 0,0Z" fill="#FFF7EE" stroke="#C9A98A" stroke-width="0.5" stroke-linecap="round" stroke-linejoin="round" /></g><g transform="rotate(72.0 0 0)"><path d="M0,0 Q-1.92,-3.2 0,-4.800000000000001 Q1.92,-3.2 0,0Z" fill="#FFF7EE" stroke="#C9A98A" stroke-width="0.5" stroke-linecap="round" stroke-linejoin="round" /></g><g transform="rotate(144.0 0 0)"><path d="M0,0 Q-1.92,-3.2 0,-4.800000000000001 Q1.92,-3.2 0,0Z" fill="#FFF7EE" stroke="#C9A98A" stroke-width="0.5" stroke-linecap="round" stroke-linejoin="round" /></g><g transform="rotate(216.0 0 0)"><path d="M0,0 Q-1.92,-3.2 0,-4.800000000000001 Q1.92,-3.2 0,0Z" fill="#FFF7EE" stroke="#C9A98A" stroke-width="0.5" stroke-linecap="round" stroke-linejoin="round" /></g><g transform="rotate(288.0 0 0)"><path d="M0,0 Q-1.92,-3.2 0,-4.800000000000001 Q1.92,-3.2 0,0Z" fill="#FFF7EE" stroke="#C9A98A" stroke-width="0.5" stroke-linecap="round" stroke-linejoin="round" /></g><circle cx="0" cy="0" r="1.2800000000000002" fill="#F4E27A" /></g><g transform="translate(70.0 170.0)"><g transform="rotate(0.0 0 0)"><path d="M0,0 Q-1.92,-3.2 0,-4.800000000000001 Q1.92,-3.2 0,0Z" fill="#FFF7EE" stroke="#C9A98A" stroke-width="0.5" stroke-linecap="round" stroke-linejoin="round" /></g><g transform="rotate(72.0 0 0)"><path d="M0,0 Q-1.92,-3.2 0,-4.800000000000001 Q1.92,-3.2 0,0Z" fill="#FFF7EE" stroke="#C9A98A" stroke-width="0.5" stroke-linecap="round" stroke-linejoin="round" /></g><g transform="rotate(144.0 0 0)"><path d="M0,0 Q-1.92,-3.2 0,-4.800000000000001 Q1.92,-3.2 0,0Z" fill="#FFF7EE" stroke="#C9A98A" stroke-width="0.5" stroke-linecap="round" stroke-linejoin="round" /></g><g transform="rotate(216.0 0 0)"><path d="M0,0 Q-1.92,-3.2 0,-4.800000000000001 Q1.92,-3.2 0,0Z" fill="#FFF7EE" stroke="#C9A98A" stroke-width="0.5" stroke-linecap="round" stroke-linejoin="round" /></g><g transform="rotate(288.0 0 0)"><path d="M0,0 Q-1.92,-3.2 0,-4.800000000000001 Q1.92,-3.2 0,0Z" fill="#FFF7EE" stroke="#C9A98A" stroke-width="0.5" stroke-linecap="round" stroke-linejoin="round" /></g><circle cx="0" cy="0" r="1.2800000000000002" fill="#F4E27A" /></g><g transform="translate(74.375 167.30993925645225)"><g transform="rotate(0.0 0 0)"><path d="M0,0 Q-1.92,-3.2 0,-4.800000000000001 Q1.92,-3.2 0,0Z" fill="#B3261E" stroke="none" stroke-width="0.5" stroke-linecap="round" stroke-linejoin="round" /></g><g transform="rotate(72.0 0 0)"><path d="M0,0 Q-1.92,-3.2 0,-4.800000000000001 Q1.92,-3.2 0,0Z" fill="#B3261E" stroke="none" stroke-width="0.5" stroke-linecap="round" stroke-linejoin="round" /></g><g transform="rotate(144.0 0 0)"><path d="M0,0 Q-1.92,-3.2 0,-4.800000000000001 Q1.92,-3.2 0,0Z" fill="#B3261E" stroke="none" stroke-width="0.5" stroke-linecap="round" stroke-linejoin="round" /></g><g transform="rotate(216.0 0 0)"><path d="M0,0 Q-1.92,-3.2 0,-4.800000000000001 Q1.92,-3.2 0,0Z" fill="#B3261E" stroke="none" stroke-width="0.5" stroke-linecap="round" stroke-linejoin="round" /></g><g transform="rotate(288.0 0 0)"><path d="M0,0 Q-1.92,-3.2 0,-4.800000000000001 Q1.92,-3.2 0,0Z" fill="#B3261E" stroke="none" stroke-width="0.5" stroke-linecap="round" stroke-linejoin="round" /></g><circle cx="0" cy="0" r="1.2800000000000002" fill="#F4E27A" /></g><g transform="translate(78.75 159.34313455158014)"><g transform="rotate(0.0 0 0)"><path d="M0,0 Q-1.92,-3.2 0,-4.800000000000001 Q1.92,-3.2 0,0Z" fill="#FFF7EE" stroke="#C9A98A" stroke-width="0.5" stroke-linecap="round" stroke-linejoin="round" /></g><g transform="rotate(72.0 0 0)"><path d="M0,0 Q-1.92,-3.2 0,-4.800000000000001 Q1.92,-3.2 0,0Z" fill="#FFF7EE" stroke="#C9A98A" stroke-width="0.5" stroke-linecap="round" stroke-linejoin="round" /></g><g transform="rotate(144.0 0 0)"><path d="M0,0 Q-1.92,-3.2 0,-4.800000000000001 Q1.92,-3.2 0,0Z" fill="#FFF7EE" stroke="#C9A98A" stroke-width="0.5" stroke-linecap="round" stroke-linejoin="round" /></g><g transform="rotate(216.0 0 0)"><path d="M0,0 Q-1.92,-3.2 0,-4.800000000000001 Q1.92,-3.2 0,0Z" fill="#FFF7EE" stroke="#C9A98A" stroke-width="0.5" stroke-linecap="round" stroke-linejoin="round" /></g><g transform="rotate(288.0 0 0)"><path d="M0,0 Q-1.92,-3.2 0,-4.800000000000001 Q1.92,-3.2 0,0Z" fill="#FFF7EE" stroke="#C9A98A" stroke-width="0.5" stroke-linecap="round" stroke-linejoin="round" /></g><circle cx="0" cy="0" r="1.2800000000000002" fill="#F4E27A" /></g><g transform="translate(83.125 146.40574572235636)"><g transform="rotate(0.0 0 0)"><path d="M0,0 Q-1.92,-3.2 0,-4.800000000000001 Q1.92,-3.2 0,0Z" fill="#FFF7EE" stroke="#C9A98A" stroke-width="0.5" stroke-linecap="round" stroke-linejoin="round" /></g><g transform="rotate(72.0 0 0)"><path d="M0,0 Q-1.92,-3.2 0,-4.800000000000001 Q1.92,-3.2 0,0Z" fill="#FFF7EE" stroke="#C9A98A" stroke-width="0.5" stroke-linecap="round" stroke-linejoin="round" /></g><g transform="rotate(144.0 0 0)"><path d="M0,0 Q-1.92,-3.2 0,-4.800000000000001 Q1.92,-3.2 0,0Z" fill="#FFF7EE" stroke="#C9A98A" stroke-width="0.5" stroke-linecap="round" stroke-linejoin="round" /></g><g transform="rotate(216.0 0 0)"><path d="M0,0 Q-1.92,-3.2 0,-4.800000000000001 Q1.92,-3.2 0,0Z" fill="#FFF7EE" stroke="#C9A98A" stroke-width="0.5" stroke-linecap="round" stroke-linejoin="round" /></g><g transform="rotate(288.0 0 0)"><path d="M0,0 Q-1.92,-3.2 0,-4.800000000000001 Q1.92,-3.2 0,0Z" fill="#FFF7EE" stroke="#C9A98A" stroke-width="0.5" stroke-linecap="round" stroke-linejoin="round" /></g><circle cx="0" cy="0" r="1.2800000000000002" fill="#F4E27A" /></g><g transform="translate(87.5 128.99494936611666)"><g transform="rotate(0.0 0 0)"><path d="M0,0 Q-1.92,-3.2 0,-4.800000000000001 Q1.92,-3.2 0,0Z" fill="#B3261E" stroke="none" stroke-width="0.5" stroke-linecap="round" stroke-linejoin="round" /></g><g transform="rotate(72.0 0 0)"><path d="M0,0 Q-1.92,-3.2 0,-4.800000000000001 Q1.92,-3.2 0,0Z" fill="#B3261E" stroke="none" stroke-width="0.5" stroke-linecap="round" stroke-linejoin="round" /></g><g transform="rotate(144.0 0 0)"><path d="M0,0 Q-1.92,-3.2 0,-4.800000000000001 Q1.92,-3.2 0,0Z" fill="#B3261E" stroke="none" stroke-width="0.5" stroke-linecap="round" stroke-linejoin="round" /></g><g transform="rotate(216.0 0 0)"><path d="M0,0 Q-1.92,-3.2 0,-4.800000000000001 Q1.92,-3.2 0,0Z" fill="#B3261E" stroke="none" stroke-width="0.5" stroke-linecap="round" stroke-linejoin="round" /></g><g transform="rotate(288.0 0 0)"><path d="M0,0 Q-1.92,-3.2 0,-4.800000000000001 Q1.92,-3.2 0,0Z" fill="#B3261E" stroke="none" stroke-width="0.5" stroke-linecap="round" stroke-linejoin="round" /></g><circle cx="0" cy="0" r="1.2800000000000002" fill="#F4E27A" /></g><g transform="translate(91.875 107.77983262274431)"><g transform="rotate(0.0 0 0)"><path d="M0,0 Q-1.92,-3.2 0,-4.800000000000001 Q1.92,-3.2 0,0Z" fill="#FFF7EE" stroke="#C9A98A" stroke-width="0.5" stroke-linecap="round" stroke-linejoin="round" /></g><g transform="rotate(72.0 0 0)"><path d="M0,0 Q-1.92,-3.2 0,-4.800000000000001 Q1.92,-3.2 0,0Z" fill="#FFF7EE" stroke="#C9A98A" stroke-width="0.5" stroke-linecap="round" stroke-linejoin="round" /></g><g transform="rotate(144.0 0 0)"><path d="M0,0 Q-1.92,-3.2 0,-4.800000000000001 Q1.92,-3.2 0,0Z" fill="#FFF7EE" stroke="#C9A98A" stroke-width="0.5" stroke-linecap="round" stroke-linejoin="round" /></g><g transform="rotate(216.0 0 0)"><path d="M0,0 Q-1.92,-3.2 0,-4.800000000000001 Q1.92,-3.2 0,0Z" fill="#FFF7EE" stroke="#C9A98A" stroke-width="0.5" stroke-linecap="round" stroke-linejoin="round" /></g><g transform="rotate(288.0 0 0)"><path d="M0,0 Q-1.92,-3.2 0,-4.800000000000001 Q1.92,-3.2 0,0Z" fill="#FFF7EE" stroke="#C9A98A" stroke-width="0.5" stroke-linecap="round" stroke-linejoin="round" /></g><circle cx="0" cy="0" r="1.2800000000000002" fill="#F4E27A" /></g><g transform="translate(96.25 83.57568053111258)"><g transform="rotate(0.0 0 0)"><path d="M0,0 Q-1.92,-3.2 0,-4.800000000000001 Q1.92,-3.2 0,0Z" fill="#FFF7EE" stroke="#C9A98A" stroke-width="0.5" stroke-linecap="round" stroke-linejoin="round" /></g><g transform="rotate(72.0 0 0)"><path d="M0,0 Q-1.92,-3.2 0,-4.800000000000001 Q1.92,-3.2 0,0Z" fill="#FFF7EE" stroke="#C9A98A" stroke-width="0.5" stroke-linecap="round" stroke-linejoin="round" /></g><g transform="rotate(144.0 0 0)"><path d="M0,0 Q-1.92,-3.2 0,-4.800000000000001 Q1.92,-3.2 0,0Z" fill="#FFF7EE" stroke="#C9A98A" stroke-width="0.5" stroke-linecap="round" stroke-linejoin="round" /></g><g transform="rotate(216.0 0 0)"><path d="M0,0 Q-1.92,-3.2 0,-4.800000000000001 Q1.92,-3.2 0,0Z" fill="#FFF7EE" stroke="#C9A98A" stroke-width="0.5" stroke-linecap="round" stroke-linejoin="round" /></g><g transform="rotate(288.0 0 0)"><path d="M0,0 Q-1.92,-3.2 0,-4.800000000000001 Q1.92,-3.2 0,0Z" fill="#FFF7EE" stroke="#C9A98A" stroke-width="0.5" stroke-linecap="round" stroke-linejoin="round" /></g><circle cx="0" cy="0" r="1.2800000000000002" fill="#F4E27A" /></g><g transform="translate(100.625 57.312645082258)"><g transform="rotate(0.0 0 0)"><path d="M0,0 Q-1.92,-3.2 0,-4.800000000000001 Q1.92,-3.2 0,0Z" fill="#B3261E" stroke="none" stroke-width="0.5" stroke-linecap="round" stroke-linejoin="round" /></g><g transform="rotate(72.0 0 0)"><path d="M0,0 Q-1.92,-3.2 0,-4.800000000000001 Q1.92,-3.2 0,0Z" fill="#B3261E" stroke="none" stroke-width="0.5" stroke-linecap="round" stroke-linejoin="round" /></g><g transform="rotate(144.0 0 0)"><path d="M0,0 Q-1.92,-3.2 0,-4.800000000000001 Q1.92,-3.2 0,0Z" fill="#B3261E" stroke="none" stroke-width="0.5" stroke-linecap="round" stroke-linejoin="round" /></g><g transform="rotate(216.0 0 0)"><path d="M0,0 Q-1.92,-3.2 0,-4.800000000000001 Q1.92,-3.2 0,0Z" fill="#B3261E" stroke="none" stroke-width="0.5" stroke-linecap="round" stroke-linejoin="round" /></g><g transform="rotate(288.0 0 0)"><path d="M0,0 Q-1.92,-3.2 0,-4.800000000000001 Q1.92,-3.2 0,0Z" fill="#B3261E" stroke="none" stroke-width="0.5" stroke-linecap="round" stroke-linejoin="round" /></g><circle cx="0" cy="0" r="1.2800000000000002" fill="#F4E27A" /></g><g transform="translate(105.0 30.000000000000018)"><g transform="rotate(0.0 0 0)"><path d="M0,0 Q-1.92,-3.2 0,-4.800000000000001 Q1.92,-3.2 0,0Z" fill="#FFF7EE" stroke="#C9A98A" stroke-width="0.5" stroke-linecap="round" stroke-linejoin="round" /></g><g transform="rotate(72.0 0 0)"><path d="M0,0 Q-1.92,-3.2 0,-4.800000000000001 Q1.92,-3.2 0,0Z" fill="#FFF7EE" stroke="#C9A98A" stroke-width="0.5" stroke-linecap="round" stroke-linejoin="round" /></g><g transform="rotate(144.0 0 0)"><path d="M0,0 Q-1.92,-3.2 0,-4.800000000000001 Q1.92,-3.2 0,0Z" fill="#FFF7EE" stroke="#C9A98A" stroke-width="0.5" stroke-linecap="round" stroke-linejoin="round" /></g><g transform="rotate(216.0 0 0)"><path d="M0,0 Q-1.92,-3.2 0,-4.800000000000001 Q1.92,-3.2 0,0Z" fill="#FFF7EE" stroke="#C9A98A" stroke-width="0.5" stroke-linecap="round" stroke-linejoin="round" /></g><g transform="rotate(288.0 0 0)"><path d="M0,0 Q-1.92,-3.2 0,-4.800000000000001 Q1.92,-3.2 0,0Z" fill="#FFF7EE" stroke="#C9A98A" stroke-width="0.5" stroke-linecap="round" stroke-linejoin="round" /></g><circle cx="0" cy="0" r="1.2800000000000002" fill="#F4E27A" /></g><g transform="translate(95.0 30.0)"><g transform="rotate(0.0 0 0)"><path d="M0,0 Q-1.92,-3.2 0,-4.800000000000001 Q1.92,-3.2 0,0Z" fill="#B3261E" stroke="none" stroke-width="0.5" stroke-linecap="round" stroke-linejoin="round" /></g><g transform="rotate(72.0 0 0)"><path d="M0,0 Q-1.92,-3.2 0,-4.800000000000001 Q1.92,-3.2 0,0Z" fill="#B3261E" stroke="none" stroke-width="0.5" stroke-linecap="round" stroke-linejoin="round" /></g><g transform="rotate(144.0 0 0)"><path d="M0,0 Q-1.92,-3.2 0,-4.800000000000001 Q1.92,-3.2 0,0Z" fill="#B3261E" stroke="none" stroke-width="0.5" stroke-linecap="round" stroke-linejoin="round" /></g><g transform="rotate(216.0 0 0)"><path d="M0,0 Q-1.92,-3.2 0,-4.800000000000001 Q1.92,-3.2 0,0Z" fill="#B3261E" stroke="none" stroke-width="0.5" stroke-linecap="round" stroke-linejoin="round" /></g><g transform="rotate(288.0 0 0)"><path d="M0,0 Q-1.92,-3.2 0,-4.800000000000001 Q1.92,-3.2 0,0Z" fill="#B3261E" stroke="none" stroke-width="0.5" stroke-linecap="round" stroke-linejoin="round" /></g><circle cx="0" cy="0" r="1.2800000000000002" fill="#F4E27A" /></g><g transform="translate(99.375 57.31264508225796)"><g transform="rotate(0.0 0 0)"><path d="M0,0 Q-1.92,-3.2 0,-4.800000000000001 Q1.92,-3.2 0,0Z" fill="#FFF7EE" stroke="#C9A98A" stroke-width="0.5" stroke-linecap="round" stroke-linejoin="round" /></g><g transform="rotate(72.0 0 0)"><path d="M0,0 Q-1.92,-3.2 0,-4.800000000000001 Q1.92,-3.2 0,0Z" fill="#FFF7EE" stroke="#C9A98A" stroke-width="0.5" stroke-linecap="round" stroke-linejoin="round" /></g><g transform="rotate(144.0 0 0)"><path d="M0,0 Q-1.92,-3.2 0,-4.800000000000001 Q1.92,-3.2 0,0Z" fill="#FFF7EE" stroke="#C9A98A" stroke-width="0.5" stroke-linecap="round" stroke-linejoin="round" /></g><g transform="rotate(216.0 0 0)"><path d="M0,0 Q-1.92,-3.2 0,-4.800000000000001 Q1.92,-3.2 0,0Z" fill="#FFF7EE" stroke="#C9A98A" stroke-width="0.5" stroke-linecap="round" stroke-linejoin="round" /></g><g transform="rotate(288.0 0 0)"><path d="M0,0 Q-1.92,-3.2 0,-4.800000000000001 Q1.92,-3.2 0,0Z" fill="#FFF7EE" stroke="#C9A98A" stroke-width="0.5" stroke-linecap="round" stroke-linejoin="round" /></g><circle cx="0" cy="0" r="1.2800000000000002" fill="#F4E27A" /></g><g transform="translate(103.75 83.57568053111257)"><g transform="rotate(0.0 0 0)"><path d="M0,0 Q-1.92,-3.2 0,-4.800000000000001 Q1.92,-3.2 0,0Z" fill="#FFF7EE" stroke="#C9A98A" stroke-width="0.5" stroke-linecap="round" stroke-linejoin="round" /></g><g transform="rotate(72.0 0 0)"><path d="M0,0 Q-1.92,-3.2 0,-4.800000000000001 Q1.92,-3.2 0,0Z" fill="#FFF7EE" stroke="#C9A98A" stroke-width="0.5" stroke-linecap="round" stroke-linejoin="round" /></g><g transform="rotate(144.0 0 0)"><path d="M0,0 Q-1.92,-3.2 0,-4.800000000000001 Q1.92,-3.2 0,0Z" fill="#FFF7EE" stroke="#C9A98A" stroke-width="0.5" stroke-linecap="round" stroke-linejoin="round" /></g><g transform="rotate(216.0 0 0)"><path d="M0,0 Q-1.92,-3.2 0,-4.800000000000001 Q1.92,-3.2 0,0Z" fill="#FFF7EE" stroke="#C9A98A" stroke-width="0.5" stroke-linecap="round" stroke-linejoin="round" /></g><g transform="rotate(288.0 0 0)"><path d="M0,0 Q-1.92,-3.2 0,-4.800000000000001 Q1.92,-3.2 0,0Z" fill="#FFF7EE" stroke="#C9A98A" stroke-width="0.5" stroke-linecap="round" stroke-linejoin="round" /></g><circle cx="0" cy="0" r="1.2800000000000002" fill="#F4E27A" /></g><g transform="translate(108.125 107.77983262274431)"><g transform="rotate(0.0 0 0)"><path d="M0,0 Q-1.92,-3.2 0,-4.800000000000001 Q1.92,-3.2 0,0Z" fill="#B3261E" stroke="none" stroke-width="0.5" stroke-linecap="round" stroke-linejoin="round" /></g><g transform="rotate(72.0 0 0)"><path d="M0,0 Q-1.92,-3.2 0,-4.800000000000001 Q1.92,-3.2 0,0Z" fill="#B3261E" stroke="none" stroke-width="0.5" stroke-linecap="round" stroke-linejoin="round" /></g><g transform="rotate(144.0 0 0)"><path d="M0,0 Q-1.92,-3.2 0,-4.800000000000001 Q1.92,-3.2 0,0Z" fill="#B3261E" stroke="none" stroke-width="0.5" stroke-linecap="round" stroke-linejoin="round" /></g><g transform="rotate(216.0 0 0)"><path d="M0,0 Q-1.92,-3.2 0,-4.800000000000001 Q1.92,-3.2 0,0Z" fill="#B3261E" stroke="none" stroke-width="0.5" stroke-linecap="round" stroke-linejoin="round" /></g><g transform="rotate(288.0 0 0)"><path d="M0,0 Q-1.92,-3.2 0,-4.800000000000001 Q1.92,-3.2 0,0Z" fill="#B3261E" stroke="none" stroke-width="0.5" stroke-linecap="round" stroke-linejoin="round" /></g><circle cx="0" cy="0" r="1.2800000000000002" fill="#F4E27A" /></g><g transform="translate(112.5 128.99494936611666)"><g transform="rotate(0.0 0 0)"><path d="M0,0 Q-1.92,-3.2 0,-4.800000000000001 Q1.92,-3.2 0,0Z" fill="#FFF7EE" stroke="#C9A98A" stroke-width="0.5" stroke-linecap="round" stroke-linejoin="round" /></g><g transform="rotate(72.0 0 0)"><path d="M0,0 Q-1.92,-3.2 0,-4.800000000000001 Q1.92,-3.2 0,0Z" fill="#FFF7EE" stroke="#C9A98A" stroke-width="0.5" stroke-linecap="round" stroke-linejoin="round" /></g><g transform="rotate(144.0 0 0)"><path d="M0,0 Q-1.92,-3.2 0,-4.800000000000001 Q1.92,-3.2 0,0Z" fill="#FFF7EE" stroke="#C9A98A" stroke-width="0.5" stroke-linecap="round" stroke-linejoin="round" /></g><g transform="rotate(216.0 0 0)"><path d="M0,0 Q-1.92,-3.2 0,-4.800000000000001 Q1.92,-3.2 0,0Z" fill="#FFF7EE" stroke="#C9A98A" stroke-width="0.5" stroke-linecap="round" stroke-linejoin="round" /></g><g transform="rotate(288.0 0 0)"><path d="M0,0 Q-1.92,-3.2 0,-4.800000000000001 Q1.92,-3.2 0,0Z" fill="#FFF7EE" stroke="#C9A98A" stroke-width="0.5" stroke-linecap="round" stroke-linejoin="round" /></g><circle cx="0" cy="0" r="1.2800000000000002" fill="#F4E27A" /></g><g transform="translate(116.875 146.40574572235633)"><g transform="rotate(0.0 0 0)"><path d="M0,0 Q-1.92,-3.2 0,-4.800000000000001 Q1.92,-3.2 0,0Z" fill="#FFF7EE" stroke="#C9A98A" stroke-width="0.5" stroke-linecap="round" stroke-linejoin="round" /></g><g transform="rotate(72.0 0 0)"><path d="M0,0 Q-1.92,-3.2 0,-4.800000000000001 Q1.92,-3.2 0,0Z" fill="#FFF7EE" stroke="#C9A98A" stroke-width="0.5" stroke-linecap="round" stroke-linejoin="round" /></g><g transform="rotate(144.0 0 0)"><path d="M0,0 Q-1.92,-3.2 0,-4.800000000000001 Q1.92,-3.2 0,0Z" fill="#FFF7EE" stroke="#C9A98A" stroke-width="0.5" stroke-linecap="round" stroke-linejoin="round" /></g><g transform="rotate(216.0 0 0)"><path d="M0,0 Q-1.92,-3.2 0,-4.800000000000001 Q1.92,-3.2 0,0Z" fill="#FFF7EE" stroke="#C9A98A" stroke-width="0.5" stroke-linecap="round" stroke-linejoin="round" /></g><g transform="rotate(288.0 0 0)"><path d="M0,0 Q-1.92,-3.2 0,-4.800000000000001 Q1.92,-3.2 0,0Z" fill="#FFF7EE" stroke="#C9A98A" stroke-width="0.5" stroke-linecap="round" stroke-linejoin="round" /></g><circle cx="0" cy="0" r="1.2800000000000002" fill="#F4E27A" /></g><g transform="translate(121.25 159.34313455158014)"><g transform="rotate(0.0 0 0)"><path d="M0,0 Q-1.92,-3.2 0,-4.800000000000001 Q1.92,-3.2 0,0Z" fill="#B3261E" stroke="none" stroke-width="0.5" stroke-linecap="round" stroke-linejoin="round" /></g><g transform="rotate(72.0 0 0)"><path d="M0,0 Q-1.92,-3.2 0,-4.800000000000001 Q1.92,-3.2 0,0Z" fill="#B3261E" stroke="none" stroke-width="0.5" stroke-linecap="round" stroke-linejoin="round" /></g><g transform="rotate(144.0 0 0)"><path d="M0,0 Q-1.92,-3.2 0,-4.800000000000001 Q1.92,-3.2 0,0Z" fill="#B3261E" stroke="none" stroke-width="0.5" stroke-linecap="round" stroke-linejoin="round" /></g><g transform="rotate(216.0 0 0)"><path d="M0,0 Q-1.92,-3.2 0,-4.800000000000001 Q1.92,-3.2 0,0Z" fill="#B3261E" stroke="none" stroke-width="0.5" stroke-linecap="round" stroke-linejoin="round" /></g><g transform="rotate(288.0 0 0)"><path d="M0,0 Q-1.92,-3.2 0,-4.800000000000001 Q1.92,-3.2 0,0Z" fill="#B3261E" stroke="none" stroke-width="0.5" stroke-linecap="round" stroke-linejoin="round" /></g><circle cx="0" cy="0" r="1.2800000000000002" fill="#F4E27A" /></g><g transform="translate(125.625 167.30993925645225)"><g transform="rotate(0.0 0 0)"><path d="M0,0 Q-1.92,-3.2 0,-4.800000000000001 Q1.92,-3.2 0,0Z" fill="#FFF7EE" stroke="#C9A98A" stroke-width="0.5" stroke-linecap="round" stroke-linejoin="round" /></g><g transform="rotate(72.0 0 0)"><path d="M0,0 Q-1.92,-3.2 0,-4.800000000000001 Q1.92,-3.2 0,0Z" fill="#FFF7EE" stroke="#C9A98A" stroke-width="0.5" stroke-linecap="round" stroke-linejoin="round" /></g><g transform="rotate(144.0 0 0)"><path d="M0,0 Q-1.92,-3.2 0,-4.800000000000001 Q1.92,-3.2 0,0Z" fill="#FFF7EE" stroke="#C9A98A" stroke-width="0.5" stroke-linecap="round" stroke-linejoin="round" /></g><g transform="rotate(216.0 0 0)"><path d="M0,0 Q-1.92,-3.2 0,-4.800000000000001 Q1.92,-3.2 0,0Z" fill="#FFF7EE" stroke="#C9A98A" stroke-width="0.5" stroke-linecap="round" stroke-linejoin="round" /></g><g transform="rotate(288.0 0 0)"><path d="M0,0 Q-1.92,-3.2 0,-4.800000000000001 Q1.92,-3.2 0,0Z" fill="#FFF7EE" stroke="#C9A98A" stroke-width="0.5" stroke-linecap="round" stroke-linejoin="round" /></g><circle cx="0" cy="0" r="1.2800000000000002" fill="#F4E27A" /></g><g transform="translate(130.0 170.0)"><g transform="rotate(0.0 0 0)"><path d="M0,0 Q-1.92,-3.2 0,-4.800000000000001 Q1.92,-3.2 0,0Z" fill="#FFF7EE" stroke="#C9A98A" stroke-width="0.5" stroke-linecap="round" stroke-linejoin="round" /></g><g transform="rotate(72.0 0 0)"><path d="M0,0 Q-1.92,-3.2 0,-4.800000000000001 Q1.92,-3.2 0,0Z" fill="#FFF7EE" stroke="#C9A98A" stroke-width="0.5" stroke-linecap="round" stroke-linejoin="round" /></g><g transform="rotate(144.0 0 0)"><path d="M0,0 Q-1.92,-3.2 0,-4.800000000000001 Q1.92,-3.2 0,0Z" fill="#FFF7EE" stroke="#C9A98A" stroke-width="0.5" stroke-linecap="round" stroke-linejoin="round" /></g><g transform="rotate(216.0 0 0)"><path d="M0,0 Q-1.92,-3.2 0,-4.800000000000001 Q1.92,-3.2 0,0Z" fill="#FFF7EE" stroke="#C9A98A" stroke-width="0.5" stroke-linecap="round" stroke-linejoin="round" /></g><g transform="rotate(288.0 0 0)"><path d="M0,0 Q-1.92,-3.2 0,-4.800000000000001 Q1.92,-3.2 0,0Z" fill="#FFF7EE" stroke="#C9A98A" stroke-width="0.5" stroke-linecap="round" stroke-linejoin="round" /></g><circle cx="0" cy="0" r="1.2800000000000002" fill="#F4E27A" /></g><g transform="translate(134.375 167.30993925645225)"><g transform="rotate(0.0 0 0)"><path d="M0,0 Q-1.92,-3.2 0,-4.800000000000001 Q1.92,-3.2 0,0Z" fill="#B3261E" stroke="none" stroke-width="0.5" stroke-linecap="round" stroke-linejoin="round" /></g><g transform="rotate(72.0 0 0)"><path d="M0,0 Q-1.92,-3.2 0,-4.800000000000001 Q1.92,-3.2 0,0Z" fill="#B3261E" stroke="none" stroke-width="0.5" stroke-linecap="round" stroke-linejoin="round" /></g><g transform="rotate(144.0 0 0)"><path d="M0,0 Q-1.92,-3.2 0,-4.800000000000001 Q1.92,-3.2 0,0Z" fill="#B3261E" stroke="none" stroke-width="0.5" stroke-linecap="round" stroke-linejoin="round" /></g><g transform="rotate(216.0 0 0)"><path d="M0,0 Q-1.92,-3.2 0,-4.800000000000001 Q1.92,-3.2 0,0Z" fill="#B3261E" stroke="none" stroke-width="0.5" stroke-linecap="round" stroke-linejoin="round" /></g><g transform="rotate(288.0 0 0)"><path d="M0,0 Q-1.92,-3.2 0,-4.800000000000001 Q1.92,-3.2 0,0Z" fill="#B3261E" stroke="none" stroke-width="0.5" stroke-linecap="round" stroke-linejoin="round" /></g><circle cx="0" cy="0" r="1.2800000000000002" fill="#F4E27A" /></g><g transform="translate(138.75 159.34313455158014)"><g transform="rotate(0.0 0 0)"><path d="M0,0 Q-1.92,-3.2 0,-4.800000000000001 Q1.92,-3.2 0,0Z" fill="#FFF7EE" stroke="#C9A98A" stroke-width="0.5" stroke-linecap="round" stroke-linejoin="round" /></g><g transform="rotate(72.0 0 0)"><path d="M0,0 Q-1.92,-3.2 0,-4.800000000000001 Q1.92,-3.2 0,0Z" fill="#FFF7EE" stroke="#C9A98A" stroke-width="0.5" stroke-linecap="round" stroke-linejoin="round" /></g><g transform="rotate(144.0 0 0)"><path d="M0,0 Q-1.92,-3.2 0,-4.800000000000001 Q1.92,-3.2 0,0Z" fill="#FFF7EE" stroke="#C9A98A" stroke-width="0.5" stroke-linecap="round" stroke-linejoin="round" /></g><g transform="rotate(216.0 0 0)"><path d="M0,0 Q-1.92,-3.2 0,-4.800000000000001 Q1.92,-3.2 0,0Z" fill="#FFF7EE" stroke="#C9A98A" stroke-width="0.5" stroke-linecap="round" stroke-linejoin="round" /></g><g transform="rotate(288.0 0 0)"><path d="M0,0 Q-1.92,-3.2 0,-4.800000000000001 Q1.92,-3.2 0,0Z" fill="#FFF7EE" stroke="#C9A98A" stroke-width="0.5" stroke-linecap="round" stroke-linejoin="round" /></g><circle cx="0" cy="0" r="1.2800000000000002" fill="#F4E27A" /></g><g transform="translate(143.125 146.40574572235636)"><g transform="rotate(0.0 0 0)"><path d="M0,0 Q-1.92,-3.2 0,-4.800000000000001 Q1.92,-3.2 0,0Z" fill="#FFF7EE" stroke="#C9A98A" stroke-width="0.5" stroke-linecap="round" stroke-linejoin="round" /></g><g transform="rotate(72.0 0 0)"><path d="M0,0 Q-1.92,-3.2 0,-4.800000000000001 Q1.92,-3.2 0,0Z" fill="#FFF7EE" stroke="#C9A98A" stroke-width="0.5" stroke-linecap="round" stroke-linejoin="round" /></g><g transform="rotate(144.0 0 0)"><path d="M0,0 Q-1.92,-3.2 0,-4.800000000000001 Q1.92,-3.2 0,0Z" fill="#FFF7EE" stroke="#C9A98A" stroke-width="0.5" stroke-linecap="round" stroke-linejoin="round" /></g><g transform="rotate(216.0 0 0)"><path d="M0,0 Q-1.92,-3.2 0,-4.800000000000001 Q1.92,-3.2 0,0Z" fill="#FFF7EE" stroke="#C9A98A" stroke-width="0.5" stroke-linecap="round" stroke-linejoin="round" /></g><g transform="rotate(288.0 0 0)"><path d="M0,0 Q-1.92,-3.2 0,-4.800000000000001 Q1.92,-3.2 0,0Z" fill="#FFF7EE" stroke="#C9A98A" stroke-width="0.5" stroke-linecap="round" stroke-linejoin="round" /></g><circle cx="0" cy="0" r="1.2800000000000002" fill="#F4E27A" /></g><g transform="translate(147.5 128.99494936611666)"><g transform="rotate(0.0 0 0)"><path d="M0,0 Q-1.92,-3.2 0,-4.800000000000001 Q1.92,-3.2 0,0Z" fill="#B3261E" stroke="none" stroke-width="0.5" stroke-linecap="round" stroke-linejoin="round" /></g><g transform="rotate(72.0 0 0)"><path d="M0,0 Q-1.92,-3.2 0,-4.800000000000001 Q1.92,-3.2 0,0Z" fill="#B3261E" stroke="none" stroke-width="0.5" stroke-linecap="round" stroke-linejoin="round" /></g><g transform="rotate(144.0 0 0)"><path d="M0,0 Q-1.92,-3.2 0,-4.800000000000001 Q1.92,-3.2 0,0Z" fill="#B3261E" stroke="none" stroke-width="0.5" stroke-linecap="round" stroke-linejoin="round" /></g><g transform="rotate(216.0 0 0)"><path d="M0,0 Q-1.92,-3.2 0,-4.800000000000001 Q1.92,-3.2 0,0Z" fill="#B3261E" stroke="none" stroke-width="0.5" stroke-linecap="round" stroke-linejoin="round" /></g><g transform="rotate(288.0 0 0)"><path d="M0,0 Q-1.92,-3.2 0,-4.800000000000001 Q1.92,-3.2 0,0Z" fill="#B3261E" stroke="none" stroke-width="0.5" stroke-linecap="round" stroke-linejoin="round" /></g><circle cx="0" cy="0" r="1.2800000000000002" fill="#F4E27A" /></g><g transform="translate(151.875 107.77983262274431)"><g transform="rotate(0.0 0 0)"><path d="M0,0 Q-1.92,-3.2 0,-4.800000000000001 Q1.92,-3.2 0,0Z" fill="#FFF7EE" stroke="#C9A98A" stroke-width="0.5" stroke-linecap="round" stroke-linejoin="round" /></g><g transform="rotate(72.0 0 0)"><path d="M0,0 Q-1.92,-3.2 0,-4.800000000000001 Q1.92,-3.2 0,0Z" fill="#FFF7EE" stroke="#C9A98A" stroke-width="0.5" stroke-linecap="round" stroke-linejoin="round" /></g><g transform="rotate(144.0 0 0)"><path d="M0,0 Q-1.92,-3.2 0,-4.800000000000001 Q1.92,-3.2 0,0Z" fill="#FFF7EE" stroke="#C9A98A" stroke-width="0.5" stroke-linecap="round" stroke-linejoin="round" /></g><g transform="rotate(216.0 0 0)"><path d="M0,0 Q-1.92,-3.2 0,-4.800000000000001 Q1.92,-3.2 0,0Z" fill="#FFF7EE" stroke="#C9A98A" stroke-width="0.5" stroke-linecap="round" stroke-linejoin="round" /></g><g transform="rotate(288.0 0 0)"><path d="M0,0 Q-1.92,-3.2 0,-4.800000000000001 Q1.92,-3.2 0,0Z" fill="#FFF7EE" stroke="#C9A98A" stroke-width="0.5" stroke-linecap="round" stroke-linejoin="round" /></g><circle cx="0" cy="0" r="1.2800000000000002" fill="#F4E27A" /></g><g transform="translate(156.25 83.57568053111258)"><g transform="rotate(0.0 0 0)"><path d="M0,0 Q-1.92,-3.2 0,-4.800000000000001 Q1.92,-3.2 0,0Z" fill="#FFF7EE" stroke="#C9A98A" stroke-width="0.5" stroke-linecap="round" stroke-linejoin="round" /></g><g transform="rotate(72.0 0 0)"><path d="M0,0 Q-1.92,-3.2 0,-4.800000000000001 Q1.92,-3.2 0,0Z" fill="#FFF7EE" stroke="#C9A98A" stroke-width="0.5" stroke-linecap="round" stroke-linejoin="round" /></g><g transform="rotate(144.0 0 0)"><path d="M0,0 Q-1.92,-3.2 0,-4.800000000000001 Q1.92,-3.2 0,0Z" fill="#FFF7EE" stroke="#C9A98A" stroke-width="0.5" stroke-linecap="round" stroke-linejoin="round" /></g><g transform="rotate(216.0 0 0)"><path d="M0,0 Q-1.92,-3.2 0,-4.800000000000001 Q1.92,-3.2 0,0Z" fill="#FFF7EE" stroke="#C9A98A" stroke-width="0.5" stroke-linecap="round" stroke-linejoin="round" /></g><g transform="rotate(288.0 0 0)"><path d="M0,0 Q-1.92,-3.2 0,-4.800000000000001 Q1.92,-3.2 0,0Z" fill="#FFF7EE" stroke="#C9A98A" stroke-width="0.5" stroke-linecap="round" stroke-linejoin="round" /></g><circle cx="0" cy="0" r="1.2800000000000002" fill="#F4E27A" /></g><g transform="translate(160.625 57.312645082258)"><g transform="rotate(0.0 0 0)"><path d="M0,0 Q-1.92,-3.2 0,-4.800000000000001 Q1.92,-3.2 0,0Z" fill="#B3261E" stroke="none" stroke-width="0.5" stroke-linecap="round" stroke-linejoin="round" /></g><g transform="rotate(72.0 0 0)"><path d="M0,0 Q-1.92,-3.2 0,-4.800000000000001 Q1.92,-3.2 0,0Z" fill="#B3261E" stroke="none" stroke-width="0.5" stroke-linecap="round" stroke-linejoin="round" /></g><g transform="rotate(144.0 0 0)"><path d="M0,0 Q-1.92,-3.2 0,-4.800000000000001 Q1.92,-3.2 0,0Z" fill="#B3261E" stroke="none" stroke-width="0.5" stroke-linecap="round" stroke-linejoin="round" /></g><g transform="rotate(216.0 0 0)"><path d="M0,0 Q-1.92,-3.2 0,-4.800000000000001 Q1.92,-3.2 0,0Z" fill="#B3261E" stroke="none" stroke-width="0.5" stroke-linecap="round" stroke-linejoin="round" /></g><g transform="rotate(288.0 0 0)"><path d="M0,0 Q-1.92,-3.2 0,-4.800000000000001 Q1.92,-3.2 0,0Z" fill="#B3261E" stroke="none" stroke-width="0.5" stroke-linecap="round" stroke-linejoin="round" /></g><circle cx="0" cy="0" r="1.2800000000000002" fill="#F4E27A" /></g><g transform="translate(165.0 30.000000000000018)"><g transform="rotate(0.0 0 0)"><path d="M0,0 Q-1.92,-3.2 0,-4.800000000000001 Q1.92,-3.2 0,0Z" fill="#FFF7EE" stroke="#C9A98A" stroke-width="0.5" stroke-linecap="round" stroke-linejoin="round" /></g><g transform="rotate(72.0 0 0)"><path d="M0,0 Q-1.92,-3.2 0,-4.800000000000001 Q1.92,-3.2 0,0Z" fill="#FFF7EE" stroke="#C9A98A" stroke-width="0.5" stroke-linecap="round" stroke-linejoin="round" /></g><g transform="rotate(144.0 0 0)"><path d="M0,0 Q-1.92,-3.2 0,-4.800000000000001 Q1.92,-3.2 0,0Z" fill="#FFF7EE" stroke="#C9A98A" stroke-width="0.5" stroke-linecap="round" stroke-linejoin="round" /></g><g transform="rotate(216.0 0 0)"><path d="M0,0 Q-1.92,-3.2 0,-4.800000000000001 Q1.92,-3.2 0,0Z" fill="#FFF7EE" stroke="#C9A98A" stroke-width="0.5" stroke-linecap="round" stroke-linejoin="round" /></g><g transform="rotate(288.0 0 0)"><path d="M0,0 Q-1.92,-3.2 0,-4.800000000000001 Q1.92,-3.2 0,0Z" fill="#FFF7EE" stroke="#C9A98A" stroke-width="0.5" stroke-linecap="round" stroke-linejoin="round" /></g><circle cx="0" cy="0" r="1.2800000000000002" fill="#F4E27A" /></g><path d="M64,170 Q70,196 76,170Z" fill="#B3261E" stroke="none" stroke-width="0" stroke-linecap="round" stroke-linejoin="round" /><path d="M124,170 Q130,196 136,170Z" fill="#B3261E" stroke="none" stroke-width="0" stroke-linecap="round" stroke-linejoin="round" /></svg>