<svg xmlns="http://www.w3.org/2000/svg" viewBox="0 0 400 40"><defs><linearGradient id="g" x1="0" y1="0" x2="0" y2="1"><stop offset="0" stop-color="#E9C25A"/><stop offset="1" stop-color="#B8860B"/></linearGradient>
<linearGradient id="b" x1="0" y1="0" x2="0" y2="1"><stop offset="0" stop-color="#F3E1C8"/><stop offset=".55" stop-color="#D9A89A"/><stop offset="1" stop-color="#8E4F4A"/></linearGradient></defs><path d="M0,20 H160" fill="none" stroke="#B8860B" stroke-width="1.5" /><path d="M240,20 H400" fill="none" stroke="#B8860B" stroke-width="1.5" /><path d="M200,4 L214,20 L200,36 L186,20Z" fill="url(#g)" stroke="none" stroke-width="0" /><circle cx="200" cy="20" r="4" fill="#5E2723"/><circle cx="170" cy="20" r="4.0" fill="url(#g)"/><circle cx="156" cy="20" r="3.3" fill="#9A5F5A"/><circle cx="142" cy="20" r="2.6" fill="url(#g)"/><circle cx="128" cy="20" r="1.9" fill="#9A5F5A"/><path d="M100,20 q-20,-14 -40,0 q20,14 40,0Z" fill="#9A5F5A" stroke="none" stroke-width="0" /><circle cx="230" cy="20" r="4.0" fill="url(#g)"/><circle cx="244" cy="20" r="3.3" fill="#9A5F5A"/><circle cx="258" cy="20" r="2.6" fill="url(#g)"/><circle cx="272" cy="20" r="1.9" fill="#9A5F5A"/><path d="M300,20 q20,-14 40,0 q-20,14 -40,0Z" fill="#9A5F5A" stroke="none" stroke-width="0" /></svg>