<svg xmlns="http://www.w3.org/2000/svg" viewBox="0 0 200 200"><defs><linearGradient id="g" x1="0" y1="0" x2="0" y2="1"><stop offset="0" stop-color="#E9C25A"/><stop offset="1" stop-color="#B8860B"/></linearGradient>
<linearGradient id="b" x1="0" y1="0" x2="0" y2="1"><stop offset="0" stop-color="#F3E1C8"/><stop offset=".55" stop-color="#D9A89A"/><stop offset="1" stop-color="#8E4F4A"/></linearGradient>
<radialGradient id="f" cx=".5" cy=".8" r=".7"><stop offset="0" stop-color="#FFE08A"/><stop offset=".5" stop-color="#F29A2E"/><stop offset="1" stop-color="#C0392B"/></radialGradient></defs><g transform="rotate(-6 80 190)"><rect x="74" y="168" width="12" height="21" rx="3" fill="#7A4E7A"/><rect x="74" y="146" width="12" height="21" rx="3" fill="#7A4E7A"/><rect x="74" y="124" width="12" height="21" rx="3" fill="#7A4E7A"/><rect x="74" y="102" width="12" height="21" rx="3" fill="#7A4E7A"/><rect x="74" y="80" width="12" height="21" rx="3" fill="#7A4E7A"/><rect x="74" y="58" width="12" height="21" rx="3" fill="#7A4E7A"/><rect x="74" y="36" width="12" height="21" rx="3" fill="#7A4E7A"/><g transform="translate(80 40) rotate(-20) scale(0.7)"><path d="M0,0 Q-24,-20 -14,-48 Q-4,-60 0,-70 Q4,-60 14,-48 Q24,-20 0,0Z" fill="#5E7F34" stroke="#3F5F22" stroke-width="1" stroke-linecap="round" stroke-linejoin="round" /><path d="M0,-4 V-64" fill="none" stroke="#3F5F22" stroke-width="1" stroke-linecap="round" stroke-linejoin="round" /></g><g transform="translate(80 40) rotate(25) scale(0.7)"><path d="M0,0 Q-24,-20 -14,-48 Q-4,-60 0,-70 Q4,-60 14,-48 Q24,-20 0,0Z" fill="#5E7F34" stroke="#3F5F22" stroke-width="1" stroke-linecap="round" stroke-linejoin="round" /><path d="M0,-4 V-64" fill="none" stroke="#3F5F22" stroke-width="1" stroke-linecap="round" stroke-linejoin="round" /></g></g><g transform="rotate(6 120 190)"><rect x="114" y="168" width="12" height="21" rx="3" fill="#7A4E7A"/><rect x="114" y="146" width="12" height="21" rx="3" fill="#7A4E7A"/><rect x="114" y="124" width="12" height="21" rx="3" fill="#7A4E7A"/><rect x="114" y="102" width="12" height="21" rx="3" fill="#7A4E7A"/><rect x="114" y="80" width="12" height="21" rx="3" fill="#7A4E7A"/><rect x="114" y="58" width="12" height="21" rx="3" fill="#7A4E7A"/><rect x="114" y="36" width="12" height="21" rx="3" fill="#7A4E7A"/><g transform="translate(120 40) rotate(-20) scale(0.7)"><path d="M0,0 Q-24,-20 -14,-48 Q-4,-60 0,-70 Q4,-60 14,-48 Q24,-20 0,0Z" fill="#5E7F34" stroke="#3F5F22" stroke-width="1" stroke-linecap="round" stroke-linejoin="round" /><path d="M0,-4 V-64" fill="none" stroke="#3F5F22" stroke-width="1" stroke-linecap="round" stroke-linejoin="round" /></g><g transform="translate(120 40) rotate(25) scale(0.7)"><path d="M0,0 Q-24,-20 -14,-48 Q-4,-60 0,-70 Q4,-60 14,-48 Q24,-20 0,0Z" fill="#5E7F34" stroke="#3F5F22" stroke-width="1" stroke-linecap="round" stroke-linejoin="round" /><path d="M0,-4 V-64" fill="none" stroke="#3F5F22" stroke-width="1" stroke-linecap="round" stroke-linejoin="round" /></g></g></svg>